<svg width="35" height="35" viewBox="0 0 35 35" fill="none" xmlns="http://www.w3.org/2000/svg">
<path fill-rule="evenodd" clip-rule="evenodd" d="M21.6135 13.147C21.8225 13.1527 22.019 13.2273 22.1694 13.3706L22.8987 14.0839C23.2391 14.4162 23.1951 14.996 22.8012 15.382L16.3972 21.6345C16.0861 21.9384 15.4978 21.9603 15.1624 21.6345L12.2003 18.7409C11.8064 18.3558 11.7648 17.7765 12.1048 17.4448L12.8322 16.7321C13.1744 16.3999 13.7673 16.4403 14.1609 16.8239L15.7796 18.4056L20.8381 13.4655C21.062 13.2491 21.3457 13.1409 21.6133 13.1468L21.6135 13.147ZM20.095 6.196C19.6768 6.18135 19.2364 6.29092 18.7893 6.52549C17.8106 7.03934 17.0717 6.93389 16.2112 6.52549C15.7592 6.31045 15.3138 6.20342 14.8987 6.21553C14.2052 6.2374 13.588 6.59814 13.1263 7.35048C12.5411 8.30438 11.838 8.54383 10.8919 8.64148C9.5319 8.77937 8.66685 9.52623 8.62975 10.9014C8.60046 12.0196 8.11275 12.5774 7.34145 13.1352C6.23305 13.9354 5.8606 15.0128 6.5151 16.2233C7.0481 17.2052 6.90592 17.9307 6.5151 18.7997C5.9561 20.0491 6.16706 21.1669 7.34145 21.8878C8.29245 22.4735 8.53245 23.1729 8.62975 24.1212C8.76881 25.4811 9.51645 26.3444 10.8919 26.3829C12.0081 26.4145 12.569 26.8987 13.1263 27.6717C13.9526 28.8219 14.9814 29.1362 16.2112 28.4998C17.2018 27.9887 17.9224 28.0975 18.7893 28.4998C20.0434 29.0844 21.0514 28.8219 21.8762 27.6717C22.4335 26.8989 22.9944 26.4145 24.1106 26.3829C25.4864 26.3446 26.2337 25.4813 26.3727 24.1212C26.4702 23.1729 26.71 22.4735 27.661 21.8878C28.8343 21.1673 29.0483 20.0491 28.4874 18.7997C28.0965 17.9307 27.9557 17.2051 28.4874 16.2233C29.1434 15.0128 28.7711 13.9354 27.661 13.1352C26.8882 12.5774 26.4038 12.0196 26.3727 10.9014C26.337 9.52623 25.4706 8.77953 24.1106 8.64148C23.1626 8.54382 22.4626 8.30417 21.8762 7.35048C21.4159 6.59833 20.7887 6.221 20.095 6.196Z" fill="black"/>
</svg>
