<svg width="80" height="80" viewBox="0 0 80 80" fill="none" xmlns="http://www.w3.org/2000/svg">
<path d="M51.0285 46.0284H29.0285C28.4762 46.0284 28.0285 46.4762 28.0285 47.0284V69.0284C28.0285 69.2936 28.1338 69.5481 28.3213 69.7356C28.5088 69.9231 28.7633 70.0284 29.0285 70.0284H51.0285C51.2936 70.0284 51.5481 69.9231 51.7356 69.7356C51.9231 69.5481 52.0285 69.2936 52.0285 69.0284V64.0284C52.0285 63.4762 51.5807 63.0284 51.0285 63.0284C50.4762 63.0284 50.0285 63.4762 50.0285 64.0284V68.0284H30.0285V48.0284H35.0285V55.0284C35.0285 55.2936 35.1338 55.5481 35.3213 55.7356C35.5088 55.9231 35.7633 56.0284 36.0285 56.0284H44.0285C44.2936 56.0284 44.5481 55.9231 44.7356 55.7356C44.9231 55.5481 45.0285 55.2936 45.0285 55.0284V48.0284H50.0285V60.0284C50.0285 60.5807 50.4762 61.0284 51.0285 61.0284C51.5807 61.0284 52.0285 60.5807 52.0285 60.0284V47.0284C52.0285 46.7633 51.9231 46.5088 51.7356 46.3213C51.5481 46.1338 51.2936 46.0284 51.0285 46.0284ZM43.0285 54.0284H37.0285V48.0284H43.0285V54.0284Z" fill="#FFFFE3"/>
<path d="M38.0285 61.0284C38.0285 60.7633 37.9231 60.5088 37.7356 60.3213C37.5481 60.1338 37.2937 60.0284 37.0285 60.0284H33.0285C32.4762 60.0284 32.0285 60.4762 32.0285 61.0284C32.0285 61.5807 32.4762 62.0284 33.0285 62.0284H37.0285C37.2937 62.0284 37.5481 61.9231 37.7356 61.7356C37.9231 61.5481 38.0285 61.2936 38.0285 61.0284Z" fill="#FFFFE3"/>
<path d="M33.0285 64.0284C32.4762 64.0284 32.0285 64.4762 32.0285 65.0284C32.0285 65.5807 32.4762 66.0284 33.0285 66.0284H36.0285C36.5807 66.0284 37.0285 65.5807 37.0285 65.0284C37.0285 64.4762 36.5807 64.0284 36.0285 64.0284H33.0285Z" fill="#FFFFE3"/>
<path d="M45.0285 64.0284C44.4762 64.0284 44.0285 64.4762 44.0285 65.0284C44.0285 65.5807 44.4762 66.0284 45.0285 66.0284H47.0285C47.5807 66.0284 48.0285 65.5807 48.0285 65.0284C48.0285 64.4762 47.5807 64.0284 47.0285 64.0284H45.0285Z" fill="#FFFFE3"/>
<path d="M65.0285 39.0284H41.0285V37.0284C41.0285 36.2329 41.3445 35.4695 41.907 34.9071C42.4695 34.3447 43.233 34.0285 44.0284 34.0285H55.0284C56.3544 34.0285 57.6261 33.5017 58.5642 32.5643C59.5017 31.6263 60.0284 30.3544 60.0284 29.0285V18.0285C60.0284 17.4763 59.5806 17.0285 59.0284 17.0285C58.4762 17.0285 58.0284 17.4763 58.0284 18.0285V29.0285C58.0284 29.824 57.7123 30.5875 57.1498 31.1499C56.5873 31.7123 55.8239 32.0284 55.0285 32.0284H44.0285C42.7025 32.0284 41.4308 32.5552 40.4927 33.4927C39.5552 34.4306 39.0285 35.7025 39.0285 37.0284V39.0284H24.0285V32.0284C24.0285 31.2329 24.3445 30.4695 24.907 29.9071C25.4695 29.3447 26.233 29.0285 27.0284 29.0285H36.0284C37.3544 29.0285 38.6261 28.5017 39.5642 27.5643C40.5017 26.6263 41.0284 25.3544 41.0284 24.0285V18.0285H43.0284C43.3748 18.0276 43.6963 17.8468 43.8775 17.5517C44.0588 17.2562 44.0744 16.8879 43.9186 16.5785L40.9186 10.5785C40.7472 10.2446 40.4039 10.0343 40.0284 10.0343C39.653 10.0343 39.3097 10.2446 39.1382 10.5785L36.1382 16.5785C35.9824 16.8879 35.998 17.2562 36.1793 17.5517C36.3605 17.8468 36.682 18.0276 37.0284 18.0285H39.0284V24.0285C39.0284 24.824 38.7123 25.5875 38.1498 26.1499C37.5873 26.7123 36.8239 27.0284 36.0285 27.0284H27.0285C25.7025 27.0284 24.4307 27.5552 23.4927 28.4927C22.5552 29.4306 22.0285 30.7025 22.0285 32.0284V39.0284H20.0285C19.2329 39.0284 18.4695 38.7124 17.9071 38.1499C17.3447 37.5874 17.0285 36.8239 17.0285 36.0285V26.0285H19.0285C19.3749 26.0276 19.6964 25.8468 19.8776 25.5517C20.0589 25.2562 20.0745 24.8879 19.9187 24.5785L16.9187 18.5785C16.7473 18.2446 16.404 18.0343 16.0285 18.0343C15.6531 18.0343 15.3098 18.2446 15.1383 18.5785L12.1383 24.5785C11.9825 24.8879 11.9982 25.2562 12.1794 25.5517C12.3607 25.8468 12.6821 26.0276 13.0285 26.0285H15.0285V36.0285C15.0285 37.3544 15.5553 38.6262 16.4927 39.5643C17.4307 40.5018 18.7026 41.0285 20.0285 41.0285H22.0285V45.0285C22.0285 45.824 21.7124 46.5875 21.1499 47.1499C20.5874 47.7123 19.824 48.0284 19.0286 48.0284H15.0286C13.7026 48.0284 12.4309 48.5552 11.4928 49.4927C10.5553 50.4306 10.0286 51.7025 10.0286 53.0284V59.0284C10.0286 60.3544 10.5554 61.6262 11.4928 62.5642C12.4307 63.5017 13.7026 64.0284 15.0286 64.0284H25.0286C25.5808 64.0284 26.0286 63.5807 26.0286 63.0284C26.0286 62.4762 25.5808 62.0284 25.0286 62.0284H15.0286C14.233 62.0284 13.4696 61.7124 12.9072 61.1499C12.3448 60.5874 12.0286 59.8239 12.0286 59.0285V53.0285C12.0286 52.233 12.3447 51.4695 12.9072 50.9071C13.4697 50.3447 14.2331 50.0286 15.0286 50.0286H19.0286C20.3545 50.0286 21.6263 49.5018 22.5643 48.5643C23.5018 47.6264 24.0286 46.3545 24.0286 45.0286V41.0286H39.0286V43.0286C39.0286 43.5808 39.4763 44.0286 40.0286 44.0286C40.5808 44.0286 41.0286 43.5808 41.0286 43.0286V41.0286H65.0286C65.8241 41.0286 66.5875 41.3446 67.1499 41.9071C67.7123 42.4696 68.0285 43.2331 68.0285 44.0285V51.0285C68.0285 51.824 67.7124 52.5875 67.1499 53.1499C66.5874 53.7123 65.824 54.0284 65.0286 54.0284H55.0286C54.4763 54.0284 54.0286 54.4762 54.0286 55.0284C54.0286 55.5807 54.4763 56.0284 55.0286 56.0284H65.0286C66.3545 56.0284 67.6263 55.5017 68.5644 54.5642C69.5018 53.6263 70.0286 52.3544 70.0286 51.0284V44.0284C70.0286 42.7025 69.5018 41.4307 68.5644 40.4927C67.6264 39.5552 66.3545 39.0284 65.0286 39.0284H65.0285ZM40.0285 13.2684L41.4084 16.0282H38.6486L40.0285 13.2684ZM16.0285 21.2684L17.4084 24.0282H14.6486L16.0285 21.2684Z" fill="#FFFFE3"/>
<path d="M55.5782 17.9186C56.0697 18.1655 56.6688 17.9686 56.9184 17.4784L59.0282 13.2686L61.1381 17.4784C61.3077 17.8146 61.6519 18.0271 62.0283 18.0284C62.185 18.0302 62.3399 17.9923 62.4783 17.9186C62.9684 17.669 63.1653 17.0699 62.9184 16.5784L59.9184 10.5784C59.747 10.2444 59.4037 10.0342 59.0283 10.0342C58.6528 10.0342 58.3095 10.2444 58.1381 10.5784L55.1381 16.5784C54.8912 17.0699 55.0881 17.669 55.5783 17.9186L55.5782 17.9186Z" fill="#FFFFE3"/>
<path d="M64.0285 60.0284C63.2329 60.0284 62.4695 60.3445 61.9071 60.907C61.3447 61.4695 61.0285 62.233 61.0285 63.0284C61.0285 63.8238 61.3446 64.5874 61.9071 65.1498C62.4696 65.7122 63.233 66.0283 64.0285 66.0283C64.8239 66.0283 65.5874 65.7123 66.1498 65.1498C66.7122 64.5873 67.0284 63.8238 67.0284 63.0284C67.0284 62.233 66.7124 61.4694 66.1498 60.907C65.5873 60.3446 64.8239 60.0284 64.0285 60.0284ZM64.0285 64.0284C63.624 64.0284 63.2593 63.7847 63.1048 63.411C62.9499 63.0374 63.0352 62.6075 63.3213 62.3213C63.6075 62.0351 64.0374 61.9499 64.4111 62.1048C64.7847 62.2593 65.0285 62.624 65.0285 63.0284C65.0285 63.2936 64.9231 63.5481 64.7356 63.7356C64.5481 63.9231 64.2937 64.0284 64.0285 64.0284Z" fill="#FFFFE3"/>
<path d="M20.7382 53.3187C20.5507 53.1295 20.2949 53.0228 20.0284 53.0228C19.7619 53.0228 19.506 53.1295 19.3186 53.3187L18.0284 54.6187L16.7382 53.3187C16.3462 52.9263 15.7105 52.9263 15.3186 53.3187C14.9261 53.7107 14.9261 54.3464 15.3186 54.7384L16.6186 56.0286L15.3186 57.3187C15.1293 57.5062 15.0226 57.762 15.0226 58.0286C15.0226 58.2951 15.1293 58.5509 15.3186 58.7384C15.506 58.9277 15.7619 59.0344 16.0284 59.0344C16.2949 59.0344 16.5507 58.9277 16.7382 58.7384L18.0284 57.4384L19.3185 58.7384C19.506 58.9277 19.7618 59.0344 20.0283 59.0344C20.2949 59.0344 20.5507 58.9277 20.7382 58.7384C20.9274 58.5509 21.0341 58.2951 21.0341 58.0286C21.0341 57.762 20.9274 57.5062 20.7382 57.3187L19.4382 56.0286L20.7382 54.7384C20.9274 54.5509 21.0341 54.2951 21.0341 54.0286C21.0341 53.7621 20.9274 53.5063 20.7382 53.3188L20.7382 53.3187Z" fill="#FFFFE3"/>
<path d="M16.0285 16.0285C16.824 16.0285 17.5874 15.7124 18.1498 15.1499C18.7122 14.5874 19.0284 13.8239 19.0284 13.0285C19.0284 12.2331 18.7123 11.4695 18.1498 10.9071C17.5873 10.3447 16.8239 10.0286 16.0285 10.0286C15.233 10.0286 14.4695 10.3446 13.9071 10.9071C13.3447 11.4696 13.0285 12.2331 13.0285 13.0285C13.0285 13.8239 13.3446 14.5875 13.9071 15.1499C14.4696 15.7123 15.233 16.0285 16.0285 16.0285ZM16.0285 12.0285C16.4329 12.0285 16.7977 12.2722 16.9521 12.6459C17.107 13.0195 17.0218 13.4494 16.7356 13.7356C16.4495 14.0218 16.0195 14.107 15.6459 13.9521C15.2722 13.7976 15.0285 13.4329 15.0285 13.0285C15.0285 12.4762 15.4762 12.0285 16.0285 12.0285Z" fill="#FFFFE3"/>
<path d="M29.0285 35.0284C28.4762 35.0284 28.0285 35.4762 28.0285 36.0284C28.0285 36.5807 28.4762 37.0284 29.0285 37.0284C30.1003 37.0284 31.0905 36.4566 31.6266 35.5284C32.1624 34.6003 32.1624 33.4566 31.6266 32.5284C31.0905 31.6003 30.1004 31.0284 29.0285 31.0284C28.4762 31.0284 28.0285 31.4762 28.0285 32.0284C28.0285 32.5807 28.4762 33.0284 29.0285 33.0284C29.5807 33.0284 30.0285 33.4762 30.0285 34.0284C30.0285 34.5807 29.5807 35.0284 29.0285 35.0284Z" fill="#FFFFE3"/>
<path d="M68.4388 23.0285L69.7388 21.7383C70.1312 21.3463 70.1312 20.7106 69.7388 20.3186C69.3468 19.9262 68.7111 19.9262 68.3191 20.3186L67.0289 21.6186L65.7388 20.3186C65.3468 19.9262 64.7111 19.9262 64.3191 20.3186C63.9267 20.7106 63.9267 21.3463 64.3191 21.7383L65.6191 23.0285L64.3191 24.3186C64.1298 24.5061 64.0231 24.7619 64.0231 25.0284C64.0231 25.295 64.1298 25.5508 64.3191 25.7383C64.5066 25.9275 64.7624 26.0342 65.0289 26.0342C65.2954 26.0342 65.5512 25.9275 65.7387 25.7383L67.0289 24.4383L68.3191 25.7383C68.5066 25.9275 68.7624 26.0342 69.0289 26.0342C69.2954 26.0342 69.5512 25.9275 69.7387 25.7383C69.928 25.5508 70.0347 25.295 70.0347 25.0284C70.0347 24.7619 69.928 24.5061 69.7387 24.3186L68.4388 23.0285Z" fill="#FFFFE3"/>
<path d="M58.3188 49.7382C58.5063 49.9275 58.7621 50.0342 59.0286 50.0342C59.2951 50.0342 59.5509 49.9275 59.7384 49.7382L61.0286 48.4382L62.3187 49.7382C62.5062 49.9275 62.762 50.0342 63.0286 50.0342C63.2951 50.0342 63.5509 49.9275 63.7384 49.7382C63.9277 49.5507 64.0344 49.2949 64.0344 49.0284C64.0344 48.7618 63.9277 48.506 63.7384 48.3185L62.4384 47.0284L63.7384 45.7382C64.1308 45.3462 64.1308 44.7105 63.7384 44.3185C63.3464 43.9261 62.7107 43.9261 62.3187 44.3185L61.0285 45.6185L59.7384 44.3185C59.3464 43.9261 58.7107 43.9261 58.3187 44.3185C57.9263 44.7105 57.9263 45.3462 58.3187 45.7382L59.6187 47.0284L58.3187 48.3185C58.1294 48.506 58.0227 48.7618 58.0227 49.0284C58.0227 49.2949 58.1294 49.5507 58.3187 49.7382H58.3188Z" fill="#FFFFE3"/>
<path d="M26.3188 22.7382C26.5063 22.9275 26.7621 23.0342 27.0286 23.0342C27.2951 23.0342 27.5509 22.9275 27.7384 22.7382L29.0286 21.4382L30.3187 22.7382C30.5062 22.9275 30.762 23.0342 31.0286 23.0342C31.2951 23.0342 31.5509 22.9275 31.7384 22.7382C31.9277 22.5507 32.0343 22.2949 32.0343 22.0284C32.0343 21.7618 31.9277 21.506 31.7384 21.3185L30.4384 20.0284L31.7384 18.7382C32.1308 18.3462 32.1308 17.7105 31.7384 17.3185C31.3464 16.9261 30.7107 16.9261 30.3187 17.3185L29.0285 18.6185L27.7384 17.3185C27.3464 16.9261 26.7107 16.9261 26.3187 17.3185C25.9263 17.7105 25.9263 18.3462 26.3187 18.7382L27.6187 20.0284L26.3187 21.3185C26.1294 21.506 26.0227 21.7618 26.0227 22.0284C26.0227 22.2949 26.1294 22.5507 26.3187 22.7382H26.3188Z" fill="#FFFFE3"/>
<path d="M49.0285 28.0285C49.824 28.0285 50.5874 27.7124 51.1498 27.1499C51.7122 26.5874 52.0284 25.8239 52.0284 25.0285C52.0284 24.2331 51.7123 23.4695 51.1498 22.9071C50.5873 22.3447 49.8239 22.0286 49.0285 22.0286C48.233 22.0286 47.4695 22.3446 46.9071 22.9071C46.3447 23.4696 46.0285 24.2331 46.0285 25.0285C46.0285 25.8239 46.3446 26.5875 46.9071 27.1499C47.4696 27.7123 48.233 28.0285 49.0285 28.0285ZM49.0285 24.0285C49.4329 24.0285 49.7977 24.2722 49.9521 24.6459C50.107 25.0195 50.0218 25.4494 49.7356 25.7356C49.4495 26.0218 49.0195 26.107 48.6459 25.9521C48.2722 25.7976 48.0285 25.4329 48.0285 25.0285C48.0285 24.4762 48.4762 24.0285 49.0285 24.0285Z" fill="#FFFFE3"/>
</svg>
