<svg width="80" height="80" viewBox="0 0 80 80" fill="none" xmlns="http://www.w3.org/2000/svg">
<path d="M67.0549 10.8H12.9463C10.7159 10.8 8.9704 12.5455 8.9704 14.7759V54.5336C8.9704 56.764 10.7159 58.5095 12.9463 58.5095H30.7886V61.9032H30.4975C28.4614 61.9032 26.8127 63.5519 26.8127 65.588C26.8127 67.6241 28.4614 69.2728 30.4975 69.2728H49.5032C51.5393 69.2728 53.188 67.6241 53.188 65.588C53.188 63.5519 51.5393 61.9032 49.5032 61.9032H49.2121V58.5095H67.0544C69.2848 58.5095 71.0303 56.764 71.0303 54.5336V14.7759C71.0303 12.5455 69.2848 10.8 67.0544 10.8H67.0549ZM51.2491 65.5874C51.2491 66.5571 50.4732 67.3329 49.5037 67.3329H30.4979C29.5283 67.3329 28.7525 66.557 28.7525 65.5874C28.7525 64.6178 29.5284 63.8419 30.4979 63.8419H49.5037C50.4733 63.8419 51.2491 64.6178 51.2491 65.5874ZM47.2733 61.9026H32.7281V58.5089H47.1773V61.9026H47.2733ZM69.0915 54.533C69.0915 55.6969 68.2188 56.5691 67.0554 56.5691H12.9457C11.7818 56.5691 10.9091 55.5995 10.9091 54.533V14.7753C10.9091 13.6114 11.7819 12.7392 12.9453 12.7392H67.0538C68.2182 12.7387 69.0909 13.6115 69.0909 14.7753L69.0915 54.533Z" fill="#FFFFE3"/>
<path d="M66.2789 14.5817H13.7211C13.1394 14.5817 12.7515 14.9696 12.7515 15.5513V50.557C12.7515 51.1387 13.1394 51.5267 13.7211 51.5267H66.376C66.9577 51.5267 67.3456 51.1387 67.3456 50.557V15.5513C67.2488 14.9692 66.8608 14.5812 66.2787 14.5812L66.2789 14.5817ZM65.3092 49.5874H14.6909V16.5211H65.4064V49.5874H65.3092Z" fill="#FFFFE3"/>
<path d="M41.7451 52.8851H38.2541C37.6724 52.8851 37.2844 53.2731 37.2844 53.8548C37.2844 54.4365 37.6724 54.8244 38.2541 54.8244H41.7451C42.3268 54.8244 42.7148 54.4365 42.7148 53.8548C42.7148 53.2731 42.23 52.8851 41.7451 52.8851Z" fill="#FFFFE3"/>
<path d="M25.9394 43.5754C26.2305 43.5754 26.5211 43.4786 26.7153 43.4786L32.9216 47.0666C33.2127 47.2603 33.6002 47.2603 33.8912 47.0666L39.9033 43.5755L45.9153 47.0666C46.4001 47.3576 46.9818 47.1634 47.2729 46.6786C47.5639 46.1938 47.3697 45.6121 46.8849 45.321L40.9697 41.9269V35.5269L46.4969 32.3269L52.0241 35.5269V41.7331C50.9576 42.1211 50.1817 43.1877 50.1817 44.4483C50.1817 45.9997 51.4424 47.2603 52.9937 47.2603C54.545 47.2603 55.8057 45.9997 55.8057 44.4483C55.8057 43.1877 55.0298 42.2179 53.9633 41.7331V34.9451C53.9633 34.5572 53.7696 34.2666 53.4785 34.0724L47.4665 30.5813V23.5996C47.4665 23.2116 47.2727 22.921 46.9817 22.7268L42.2303 20.0116V19.8179C42.2303 18.2665 40.9697 17.0059 39.4184 17.0059C37.867 17.0059 36.6063 18.2665 36.6063 19.8179C36.6063 21.3692 37.867 22.6299 39.4184 22.6299C40.1942 22.6299 40.9697 22.2419 41.4545 21.7571L45.5273 24.0843V30.4843L40.0001 33.7812L33.9881 30.2906C33.6001 30.0968 33.2122 30.0968 32.9215 30.3875L26.5215 34.0723C26.0367 34.3633 25.9399 34.945 26.1336 35.4299C26.4247 35.9147 27.0064 36.0115 27.4912 35.8178L33.5032 32.3267L39.0304 35.5267V41.9267L33.5032 45.1267L28.4608 42.2178C28.7519 41.8299 28.8487 41.345 28.8487 40.7633C28.8487 39.212 27.5881 37.9513 26.0367 37.9513C24.4854 37.9513 23.2247 39.212 23.2247 40.7633C23.2243 42.3146 24.3882 43.5753 25.9395 43.5753L25.9394 43.5754ZM52.9943 45.3209C52.5095 45.3209 52.1215 44.933 52.1215 44.4482C52.1215 43.9633 52.5095 43.5754 52.9943 43.5754C53.4791 43.5754 53.867 43.9633 53.867 44.4482C53.867 44.933 53.4791 45.3209 52.9943 45.3209ZM39.4183 20.7872C38.9335 20.7872 38.5455 20.3993 38.5455 19.9144C38.5455 19.4296 38.9335 19.0417 39.4183 19.0417C39.9031 19.0417 40.291 19.4296 40.291 19.9144C40.291 20.3993 39.9031 20.7872 39.4183 20.7872ZM25.9394 39.7929C26.4242 39.7929 26.8122 40.1809 26.8122 40.6657C26.8122 41.1505 26.4242 41.5385 25.9394 41.5385C25.4546 41.5385 25.0667 41.1505 25.0667 40.6657C25.0667 40.1804 25.4546 39.7929 25.9394 39.7929Z" fill="#FFFFE3"/>
</svg>
