<svg width="80" height="80" viewBox="0 0 80 80" fill="none" xmlns="http://www.w3.org/2000/svg">
<path d="M61.6823 39.6295C61.6823 37.2969 60.2622 35.2991 58.2591 34.4796C57.9359 34.3398 57.5997 34.2273 57.2497 34.1519C58.1631 33.122 58.6788 31.78 58.6788 30.3407C58.6788 27.1925 56.1694 24.6318 53.0846 24.6318C52.7145 24.6318 52.3462 24.6702 51.9819 24.7465C51.7181 21.8474 49.3208 19.5697 46.4114 19.5697C43.431 19.5697 40.8172 22.4121 40.8172 25.6523V54.8158C40.8172 57.964 43.3266 60.5247 46.4114 60.5247C49.4957 60.5247 52.0056 57.964 52.0056 54.8158C52.0056 54.7725 52.0051 54.73 52.0042 54.6908C52.3582 54.7613 52.7185 54.797 53.0846 54.797C56.1694 54.797 58.6787 52.2363 58.6787 49.0895C58.6787 47.6721 58.1729 46.3412 57.2792 45.314C59.793 44.7551 61.6818 42.4672 61.6818 39.7372C61.6818 39.7073 61.6778 39.6783 61.6778 39.6484C61.6783 39.6421 61.6823 39.6363 61.6823 39.6296L61.6823 39.6295ZM46.4126 54.7918C45.7028 54.7918 45.1259 54.215 45.1259 53.5061C45.1259 52.7972 45.7018 52.2195 46.4126 52.2195C47.1211 52.2195 47.6983 52.7962 47.6983 53.5061C47.6978 54.215 47.1211 54.7918 46.4126 54.7918ZM53.1107 50.0217C52.4009 50.0217 51.8241 49.445 51.8241 48.736C51.8241 48.0271 52.4 47.4494 53.1107 47.4494C53.8192 47.4494 54.3965 48.0262 54.3965 48.736C54.3965 49.445 53.8201 50.0217 53.1107 50.0217ZM56.0875 44.1646C55.9724 44.1646 55.859 44.1561 55.7465 44.1472C55.4527 44.1182 55.18 44.3003 55.0853 44.5798C54.992 44.8592 55.1 45.1673 55.3491 45.3249C56.633 46.14 57.3995 47.5481 57.3995 49.09C57.3995 51.298 55.8138 53.1289 53.7513 53.4592V51.2114C54.8553 50.9252 55.6773 49.9288 55.6773 48.7364C55.6773 47.3212 54.5264 46.1699 53.1117 46.1699C51.6965 46.1699 50.5451 47.3212 50.5451 48.7364C50.5451 49.9289 51.3661 50.9252 52.4714 51.2114V53.4667C52.1054 53.4131 51.7464 53.3171 51.4027 53.168C51.1741 53.0703 50.9085 53.1118 50.7232 53.2774C50.5371 53.443 50.4647 53.7015 50.5357 53.9399C50.571 54.0569 50.6022 54.1497 50.629 54.2319C50.7058 54.4604 50.7263 54.5225 50.7263 54.8154C50.7263 57.0336 49.1277 58.8711 47.0523 59.1899V55.981C48.1568 55.6948 48.9786 54.6988 48.9786 53.506C48.9786 52.0908 47.8277 50.9395 46.413 50.9395C44.9978 50.9395 43.8465 52.0908 43.8465 53.506C43.8465 54.6984 44.6674 55.6948 45.7724 55.981V59.1899C43.697 58.8711 42.0983 57.0336 42.0983 54.8154L42.0979 41.6542H43.9368C44.2229 42.7587 45.2198 43.5805 46.4131 43.5805C47.8283 43.5805 48.9787 42.4296 48.9787 41.0149C48.9787 39.5997 47.8278 38.4484 46.4131 38.4484C45.2206 38.4484 44.2243 39.2694 43.9377 40.3743H42.0984L42.0979 31.664H49.9859C50.2725 32.7685 51.269 33.59 52.4622 33.59C53.8774 33.59 55.0279 32.4391 55.0279 31.0244C55.0279 29.6092 53.877 28.4579 52.4622 28.4579C51.2693 28.4579 50.2721 29.2797 49.9859 30.3842H47.8927V27.8355C48.998 27.5493 49.8189 26.5533 49.8189 25.3605C49.8189 23.9453 48.6681 22.794 47.2533 22.794C45.8381 22.794 44.6868 23.9453 44.6868 25.3605C44.6868 26.553 45.5087 27.5493 46.6128 27.8355V30.3842H42.098V25.6516C42.098 23.0935 44.1141 20.849 46.4123 20.849C48.7917 20.849 50.7266 22.8356 50.7266 25.278C50.7266 25.3503 50.7208 25.4226 50.7119 25.5552C50.6985 25.7726 50.7958 25.9829 50.9703 26.1119C51.1462 26.2414 51.3748 26.2731 51.5788 26.195C52.0717 26.007 52.5779 25.9119 53.0856 25.9119C55.4645 25.9119 57.3999 27.8985 57.3999 30.3409C57.3999 31.9155 56.6088 33.3383 55.2829 34.1459C55.2695 34.1548 55.2606 34.1677 55.2472 34.1771C52.7217 34.6557 50.803 36.9169 50.803 39.6298C50.803 39.9838 51.0892 40.27 51.4432 40.27C51.7963 40.27 52.0834 39.9838 52.0834 39.6298C52.0834 37.2753 53.9494 35.3597 56.2431 35.3597C56.7909 35.3597 57.3137 35.4718 57.794 35.67C59.3275 36.3504 60.4034 37.9169 60.4034 39.7365C60.4025 42.178 58.4672 44.1646 56.0877 44.1646L56.0875 44.1646ZM45.1264 41.015C45.1264 40.3061 45.7023 39.7284 46.413 39.7284C47.1215 39.7284 47.6987 40.3052 47.6987 41.015C47.6987 41.7235 47.122 42.3007 46.413 42.3007C45.7023 42.3003 45.1264 41.7235 45.1264 41.015ZM47.2531 26.6459C46.5442 26.6459 45.9665 26.0691 45.9665 25.3601C45.9665 24.6512 46.5433 24.0735 47.2531 24.0735C47.963 24.0735 48.5389 24.6503 48.5389 25.3601C48.5389 26.0686 47.9621 26.6459 47.2531 26.6459ZM51.1763 31.0236C51.1763 30.3146 51.7522 29.7369 52.463 29.7369C53.1715 29.7369 53.7487 30.3137 53.7487 31.0236C53.7487 31.732 53.1719 32.3093 52.463 32.3093C51.7523 32.3093 51.1763 31.7329 51.1763 31.0236Z" fill="#FFFFE3"/>
<path d="M18.4457 39.6215C18.4457 39.6514 18.4417 39.6805 18.4417 39.7104C18.4417 42.4408 20.3305 44.7287 22.8443 45.2872C21.951 46.3144 21.4448 47.6457 21.4448 49.0626C21.4448 52.2095 23.9542 54.7701 27.039 54.7701C27.4046 54.7701 27.7653 54.7344 28.1193 54.6639C28.1189 54.7036 28.118 54.7451 28.118 54.7889C28.118 57.9371 30.6283 60.4978 33.7121 60.4978C36.7969 60.4978 39.3063 57.9371 39.3063 54.7889V25.6255C39.3063 22.3857 36.6925 19.5428 33.7121 19.5428C30.8028 19.5428 28.4054 21.8206 28.1416 24.7196C27.7782 24.6433 27.409 24.6049 27.039 24.6049C23.9542 24.6049 21.4448 27.1656 21.4448 30.3138C21.4448 31.7531 21.9613 33.0951 22.8738 34.125C22.5238 34.2005 22.1877 34.313 21.8644 34.4527C19.8614 35.2724 18.4412 37.2701 18.4412 39.6027C18.4417 39.6093 18.4457 39.6152 18.4457 39.6214L18.4457 39.6215ZM32.4263 53.4798C32.4263 52.7709 33.0031 52.1932 33.712 52.1932C34.4218 52.1932 34.9986 52.77 34.9986 53.4798C34.9986 54.1883 34.4227 54.7655 33.712 54.7655C33.0026 54.7655 32.4263 54.1888 32.4263 53.4798ZM25.7272 48.7098C25.7272 48.0008 26.304 47.4231 27.0129 47.4231C27.7227 47.4231 28.2995 47.9999 28.2995 48.7098C28.2995 49.4182 27.7236 49.9955 27.0129 49.9955C26.304 49.9955 25.7272 49.4191 25.7272 48.7098ZM19.7214 39.7107C19.7214 37.8906 20.7977 36.3245 22.3307 35.6442C22.8107 35.4451 23.333 35.3339 23.8816 35.3339C26.1753 35.3339 28.0414 37.2496 28.0414 39.604C28.0414 39.958 28.328 40.2441 28.6816 40.2441C29.0356 40.2441 29.3217 39.958 29.3217 39.604C29.3217 36.8915 27.403 34.6302 24.8775 34.1513C24.8641 34.1415 24.8556 34.129 24.8418 34.12C23.5163 33.3115 22.7249 31.8896 22.7249 30.3151C22.7249 27.8736 24.6602 25.8861 27.0392 25.8861C27.5468 25.8861 28.053 25.9807 28.5459 26.1691C28.7499 26.2472 28.9785 26.2151 29.1544 26.0861C29.3289 25.9566 29.4272 25.7468 29.4129 25.5294C29.403 25.3968 29.3981 25.3254 29.3981 25.2522C29.3981 22.8107 31.333 20.8231 33.7124 20.8231C36.0106 20.8231 38.0267 23.0678 38.0267 25.6258V30.3583H33.512V27.8096C34.616 27.5235 35.4379 26.527 35.4379 25.3347C35.4379 23.9195 34.2866 22.7682 32.8714 22.7682C31.4562 22.7682 30.3058 23.9195 30.3058 25.3347C30.3058 26.5276 31.1268 27.5235 32.2321 27.8096V30.3583H30.1375C29.8513 29.2539 28.8544 28.432 27.6611 28.432C26.2459 28.432 25.0955 29.5834 25.0955 30.9986C25.0955 32.4138 26.2464 33.5642 27.6611 33.5642C28.854 33.5642 29.8504 32.7432 30.1375 31.6382H38.0255V40.348H36.1861C35.8995 39.2436 34.9031 38.4221 33.7107 38.4221C32.2955 38.4221 31.1451 39.5734 31.1451 40.9886C31.1451 42.4038 32.296 43.5542 33.7107 43.5542C34.9036 43.5542 35.9009 42.7323 36.1871 41.6279H38.0259V54.7891C38.0259 57.0074 36.4273 58.8448 34.3519 59.1636V55.9547C35.4563 55.6685 36.2778 54.672 36.2778 53.4797C36.2778 52.0645 35.1265 50.9132 33.7113 50.9132C32.2961 50.9132 31.1457 52.0645 31.1457 53.4797C31.1457 54.6726 31.9676 55.6685 33.072 55.9547V59.1636C30.9965 58.8448 29.3979 57.0074 29.3979 54.7891C29.3979 54.4958 29.4184 54.4337 29.4952 54.2056C29.5229 54.1234 29.5542 54.031 29.5885 53.9136C29.6595 53.6757 29.5872 53.4172 29.401 53.2511C29.2153 53.0855 28.9497 53.044 28.7216 53.1417C28.3778 53.2904 28.0189 53.3868 27.6528 53.4404V51.1851C28.7582 50.8989 29.5791 49.9025 29.5791 48.7101C29.5791 47.2949 28.4278 46.1436 27.0126 46.1436C25.5974 46.1436 24.447 47.2949 24.447 48.7101C24.447 49.9026 25.2689 50.8989 26.3729 51.1851V53.4329C24.3104 53.1021 22.7247 51.2717 22.7247 49.0637C22.7247 47.5218 23.4912 46.1146 24.7751 45.2986C25.0242 45.141 25.1327 44.8325 25.0389 44.5535C24.9443 44.274 24.6715 44.0919 24.3778 44.1209C24.2653 44.1307 24.1514 44.1383 24.0367 44.1383C21.6573 44.1383 19.7215 42.1517 19.7215 39.7106L19.7214 39.7107ZM33.7111 42.2741C33.0026 42.2741 32.4254 41.6973 32.4254 40.9884C32.4254 40.2795 33.0022 39.7018 33.7111 39.7018C34.4209 39.7018 34.9977 40.2786 34.9977 40.9884C34.9977 41.6973 34.4218 42.2741 33.7111 42.2741ZM31.5851 25.3347C31.5851 24.6258 32.161 24.0481 32.8709 24.0481C33.5807 24.0481 34.1575 24.6248 34.1575 25.3347C34.1575 26.0432 33.5807 26.6204 32.8709 26.6204C32.161 26.6208 31.5851 26.0432 31.5851 25.3347ZM27.6615 32.2838C26.953 32.2838 26.3758 31.707 26.3758 30.9981C26.3758 30.2892 26.9526 29.7115 27.6615 29.7115C28.3713 29.7115 28.9481 30.2883 28.9481 30.9981C28.9477 31.7075 28.3718 32.2838 27.6615 32.2838Z" fill="#FFFFE3"/>
</svg>
