<svg width="80" height="80" viewBox="0 0 80 80" fill="none" xmlns="http://www.w3.org/2000/svg">
<path d="M70.0571 51.2411V50.0573C70.0571 48.4032 68.7112 47.0573 67.0571 47.0573H61.0571C60.504 47.0573 60.0571 47.5041 60.0571 48.0573C60.0571 48.6104 60.504 49.0573 61.0571 49.0573H67.0571C67.6089 49.0573 68.0571 49.5055 68.0571 50.0573V51.2411C66.896 51.655 66.0571 52.755 66.0571 54.0573C66.0571 55.7113 67.4031 57.0573 69.0571 57.0573C70.7112 57.0573 72.0571 55.7113 72.0571 54.0573C72.0571 52.7554 71.2183 51.6554 70.0571 51.2411ZM69.0571 55.0573C68.5054 55.0573 68.0571 54.609 68.0571 54.0573C68.0571 53.5055 68.5054 53.0573 69.0571 53.0573C69.6089 53.0573 70.0571 53.5055 70.0571 54.0573C70.0571 54.609 69.6089 55.0573 69.0571 55.0573Z" fill="#FFFFE3"/>
<path d="M61.0571 45.0571H67.0571C68.7112 45.0571 70.0571 43.7112 70.0571 42.0571V40.8732C71.2183 40.4594 72.0571 39.3594 72.0571 38.0571C72.0571 36.4031 70.7112 35.0571 69.0571 35.0571C67.4031 35.0571 66.0571 36.4031 66.0571 38.0571C66.0571 39.359 66.896 40.459 68.0571 40.8732V42.0571C68.0571 42.6089 67.6089 43.0571 67.0571 43.0571H61.0571C60.504 43.0571 60.0571 43.504 60.0571 44.0571C60.0571 44.6102 60.504 45.0571 61.0571 45.0571ZM69.0571 37.0571C69.6089 37.0571 70.0571 37.5053 70.0571 38.0571C70.0571 38.6089 69.6089 39.0571 69.0571 39.0571C68.5054 39.0571 68.0571 38.6089 68.0571 38.0571C68.0571 37.5053 68.5054 37.0571 69.0571 37.0571Z" fill="#FFFFE3"/>
<path d="M19.0571 47.0571H13.0571C11.4031 47.0571 10.0571 48.4031 10.0571 50.0571V51.241C8.896 51.6549 8.05714 52.7548 8.05714 54.0571C8.05714 55.7112 9.40309 57.0571 11.0571 57.0571C12.7112 57.0571 14.0571 55.7112 14.0571 54.0571C14.0571 52.7553 13.2183 51.6553 12.0571 51.241V50.0571C12.0571 49.5053 12.5054 49.0571 13.0571 49.0571H19.0571C19.6103 49.0571 20.0571 48.6102 20.0571 48.0571C20.0571 47.504 19.6103 47.0571 19.0571 47.0571ZM11.0571 55.0571C10.5054 55.0571 10.0571 54.6089 10.0571 54.0571C10.0571 53.5053 10.5054 53.0571 11.0571 53.0571C11.6089 53.0571 12.0571 53.5053 12.0571 54.0571C12.0571 54.6089 11.6089 55.0571 11.0571 55.0571Z" fill="#FFFFE3"/>
<path d="M19.0571 43.0571H13.0571C12.5054 43.0571 12.0571 42.6089 12.0571 42.0571V40.8732C13.2183 40.4594 14.0571 39.3594 14.0571 38.0571C14.0571 36.4031 12.7112 35.0571 11.0571 35.0571C9.40309 35.0571 8.05714 36.4031 8.05714 38.0571C8.05714 39.359 8.89598 40.459 10.0571 40.8732V42.0571C10.0571 43.7112 11.4031 45.0571 13.0571 45.0571H19.0571C19.6103 45.0571 20.0571 44.6102 20.0571 44.0571C20.0571 43.504 19.6103 43.0571 19.0571 43.0571ZM11.0571 37.0571C11.6089 37.0571 12.0571 37.5053 12.0571 38.0571C12.0571 38.6089 11.6089 39.0571 11.0571 39.0571C10.5054 39.0571 10.0571 38.6089 10.0571 38.0571C10.0571 37.5053 10.5054 37.0571 11.0571 37.0571Z" fill="#FFFFE3"/>
<path d="M48.2994 50.0868L40.2994 48.0868C40.1414 48.0458 39.9735 48.0458 39.8155 48.0868L31.8155 50.0868C31.3704 50.198 31.0575 50.598 31.0575 51.0569V60.8118C31.0575 66.1256 34.6593 70.7377 39.8164 72.027C39.8955 72.048 39.9776 72.0569 40.0584 72.0569C40.1392 72.0569 40.2213 72.0471 40.3004 72.027C45.4561 70.7382 49.0575 66.1261 49.0575 60.8118V51.0569C49.0575 50.598 48.7446 50.1989 48.2995 50.0868H48.2994ZM47.0575 60.8119C47.0575 65.1239 44.1914 68.8748 40.0566 70.0231C35.9226 68.8748 33.0575 65.1231 33.0575 60.8119V51.8378L40.0575 50.0879L47.0575 51.8378V60.8119Z" fill="#FFFFE3"/>
<path d="M39.0571 54.0571V66.0571C39.0571 66.6102 39.504 67.0571 40.0571 67.0571C40.6103 67.0571 41.0571 66.6102 41.0571 66.0571V54.0571C41.0571 53.504 40.6103 53.0571 40.0571 53.0571C39.504 53.0571 39.0571 53.504 39.0571 54.0571Z" fill="#FFFFE3"/>
<path d="M55.0571 30.0571H54.0571V22.0571C54.0571 14.337 47.7773 8.05713 40.0571 8.05713C32.337 8.05713 26.0571 14.337 26.0571 22.0571V30.0571H25.0571C23.4031 30.0571 22.0571 31.4031 22.0571 33.0571V59.0571C22.0571 60.7112 23.4031 62.0571 25.0571 62.0571H28.0683C28.6215 62.0571 29.0683 61.6102 29.0683 61.0571C29.0683 60.504 28.6215 60.0571 28.0683 60.0571H25.0571C24.5054 60.0571 24.0571 59.6089 24.0571 59.0571V33.0571C24.0571 32.5053 24.5054 32.0571 25.0571 32.0571H55.0571C55.6089 32.0571 56.0571 32.5053 56.0571 33.0571V59.0571C56.0571 59.6089 55.6089 60.0571 55.0571 60.0571H52.0459C51.4928 60.0571 51.0459 60.504 51.0459 61.0571C51.0459 61.6102 51.4928 62.0571 52.0459 62.0571H55.0571C56.7112 62.0571 58.0571 60.7112 58.0571 59.0571V33.0571C58.0571 31.4031 56.7112 30.0571 55.0571 30.0571ZM28.0571 22.0571C28.0571 15.4402 33.4402 10.0571 40.0571 10.0571C46.6741 10.0571 52.0571 15.4402 52.0571 22.0571V30.0571H48.0571V22.0571C48.0571 17.6459 44.4683 14.0571 40.0571 14.0571C35.6459 14.0571 32.0571 17.6459 32.0571 22.0571V30.0571H28.0571V22.0571ZM46.0571 30.0571H34.0571V22.0571C34.0571 18.7482 36.7482 16.0571 40.0571 16.0571C43.3661 16.0571 46.0571 18.7482 46.0571 22.0571V30.0571Z" fill="#FFFFE3"/>
</svg>
