<svg width="80" height="80" viewBox="0 0 80 80" fill="none" xmlns="http://www.w3.org/2000/svg">
<path d="M55.7117 34.3882C56.8792 33.6534 57.7144 32.5243 58.0738 31.1842C58.451 29.7758 58.2573 28.3043 57.5283 27.0414C56.0591 24.4959 52.8363 23.5828 50.2577 24.9414L45.3551 16.4494C44.7065 15.3261 43.6556 14.5222 42.3966 14.1842C41.1368 13.8467 39.8247 14.0181 38.7011 14.6664C37.5778 15.315 36.7739 16.3659 36.4359 17.6249C36.1819 18.5744 36.2167 19.553 36.5265 20.4584C34.198 26.3272 29.2685 32.3121 22.5768 37.4184C22.4728 37.3492 22.3581 37.2952 22.2353 37.2626C21.9407 37.1831 21.6268 37.2251 21.3621 37.3773L15.1054 40.9893C13.001 42.2045 11.493 44.1745 10.8599 46.5366C10.2273 48.8987 10.5479 51.3584 11.7626 53.4638C13.4519 56.3906 16.5277 58.0277 19.6867 58.0277C21.2349 58.0277 22.8033 57.6344 24.2371 56.8059L24.5951 56.5992L31.4947 65.6072C31.9715 66.2299 32.6362 66.596 33.4174 66.6665C33.5063 66.6746 33.5942 66.6786 33.6808 66.6786C34.3594 66.6786 34.9835 66.4357 35.4982 65.9692L37.3982 64.2451C38.4553 63.2853 38.6008 61.7049 37.7361 60.5692L31.2486 52.0451C38.9544 48.8585 46.532 47.6098 52.7297 48.521C53.6686 49.5955 55.0213 50.1849 56.4043 50.1849C57.2302 50.1849 58.0663 49.9751 58.8315 49.5335C61.1574 48.1907 61.9574 45.2054 60.6141 42.8795L55.7117 34.3882ZM55.5354 28.1922C55.9573 28.923 56.0693 29.7735 55.8506 30.5882C55.6506 31.3342 55.1952 31.9667 54.5599 32.3922L51.41 26.9364C52.8868 26.211 54.7006 26.7463 55.5355 28.1922H55.5354ZM19.6828 55.7271C17.3208 55.7271 15.0194 54.5016 13.7561 52.3132C12.848 50.7404 12.6092 48.9012 13.0833 47.1324C13.5574 45.3646 14.6838 43.8905 16.2566 42.9825L21.5163 39.9459L28.3472 51.7768L23.0874 54.8134C22.0138 55.4335 20.841 55.7272 19.683 55.7272L19.6828 55.7271ZM35.852 62.5418L33.952 64.2659C33.8515 64.3575 33.7591 64.3878 33.6247 64.3758C33.4895 64.3637 33.4046 64.3173 33.3229 64.2092L26.606 55.4401L29.6168 53.7022L35.9056 61.9647C36.0413 62.1428 36.0181 62.3906 35.852 62.5419L35.852 62.5418ZM30.0166 50.0664L23.8332 39.3566C30.2747 34.4699 35.1927 28.7624 37.9109 23.0411L51.1852 46.0331C44.8705 45.5264 37.4687 46.9318 30.0161 50.0666L30.0166 50.0664ZM57.6818 47.5418C56.4546 48.2503 54.8804 47.8284 54.172 46.6012L38.9114 20.1703C38.2029 18.9436 38.6248 17.369 39.852 16.6605C40.244 16.4337 40.6806 16.3185 41.1248 16.3185C41.3494 16.3185 41.5766 16.3484 41.8003 16.4078C42.4663 16.5864 43.0204 17.0096 43.3614 17.6007L58.6208 44.0316C59.3298 45.2593 58.9075 46.833 57.6811 47.5419L57.6818 47.5418ZM58.9331 26.2321C58.6153 25.6817 58.8036 24.978 59.3545 24.6602L63.9746 21.9928C64.5251 21.6749 65.2287 21.8633 65.5465 22.4142C65.8644 22.9647 65.676 23.6683 65.1251 23.9861L60.505 26.6535C60.3237 26.758 60.1255 26.808 59.9309 26.808C59.5331 26.8076 59.1465 26.6017 58.9331 26.2321H58.9331ZM53.6068 18.8204L56.4202 13.9472C56.738 13.3967 57.4416 13.2079 57.9921 13.5258C58.5425 13.8436 58.7314 14.5472 58.4135 15.0976L55.6001 19.9709C55.3867 20.3401 55.0001 20.5464 54.6019 20.5464C54.4064 20.5464 54.2086 20.4964 54.0278 20.3919C53.4778 20.0749 53.2899 19.3709 53.6068 18.8205L53.6068 18.8204ZM69.4674 33.3999C69.4674 34.0351 68.9522 34.5503 68.317 34.5503H62.6903C62.055 34.5503 61.5398 34.0351 61.5398 33.3999C61.5398 32.7647 62.055 32.2495 62.6903 32.2495H68.317C68.9523 32.2495 69.4674 32.7647 69.4674 33.3999Z" fill="#FFFFE3"/>
</svg>
