<svg width="80" height="80" viewBox="0 0 80 80" fill="none" xmlns="http://www.w3.org/2000/svg">
<path d="M40.0012 52.0147C36.2637 52.0147 32.5712 51.4736 29.0262 50.4049C28.9298 50.3763 28.8512 50.3111 28.8039 50.2236C28.7565 50.1348 28.7463 50.0334 28.7753 49.9375C28.8342 49.7451 29.049 49.6277 29.2427 49.6861C32.7177 50.7335 36.3364 51.2646 40.0017 51.2646C50.8642 51.2646 61.1628 46.5321 68.2565 38.2818C61.1641 30.0305 50.8657 25.2966 40.0017 25.2966C39.7615 25.2966 39.5378 25.2993 39.3204 25.3029H39.3128C39.1102 25.3029 38.9414 25.1377 38.9378 24.9355V24.9257C38.9405 24.7243 39.1052 24.5569 39.3066 24.5533C42.4066 24.4984 45.4865 24.8159 48.4705 25.4958C51.1567 26.1069 53.7817 27.0171 56.2719 28.1993C58.7183 29.3604 61.0482 30.7918 63.1969 32.452C65.3308 34.0993 67.2955 35.9796 69.0371 38.0408C69.1559 38.181 69.1559 38.3845 69.0371 38.5247C67.2956 40.5845 65.3308 42.465 63.1969 44.1109C61.0469 45.7707 58.7183 47.2011 56.2719 48.3622C53.7817 49.5448 51.1567 50.4547 48.4705 51.0658C45.7089 51.6952 42.8597 52.014 40.0013 52.014L40.0012 52.0147ZM26.7657 49.6196C26.7206 49.6196 26.6755 49.6107 26.6331 49.596C26.4394 49.5223 26.3421 49.3058 26.4144 49.112C26.4845 48.9245 26.7081 48.821 26.8983 48.8933C27.0907 48.9656 27.1894 49.1821 27.1171 49.3759C27.0622 49.5223 26.9211 49.6196 26.7657 49.6196V49.6196ZM24.4559 48.6607C24.4023 48.6607 24.351 48.6495 24.301 48.6281C21.7398 47.4634 19.301 46.008 17.0523 44.3004C14.8224 42.608 12.7737 40.6643 10.9635 38.5241C10.8461 38.3839 10.8447 38.1804 10.9635 38.0402C16.926 30.9866 25.2058 26.3465 34.2801 24.975C34.4801 24.9438 34.6765 25.0889 34.7064 25.2902C34.7377 25.4938 34.5966 25.6853 34.3912 25.7165C25.6135 27.0428 17.5707 31.5053 11.7444 38.2823C15.268 42.3796 19.7181 45.7211 24.613 47.9448C24.7469 48.0059 24.833 48.1399 24.8317 48.2872C24.8317 48.3408 24.8205 48.3921 24.7978 48.4421C24.738 48.5751 24.604 48.6613 24.4567 48.6613L24.4559 48.6607ZM36.817 25.4298C36.6233 25.4298 36.4595 25.2798 36.4434 25.0874C36.4358 24.9874 36.4657 24.8901 36.5309 24.8138C36.5961 24.7374 36.6858 24.6914 36.7845 24.6825C36.7845 24.6825 36.7858 24.6825 36.7858 24.6812C36.9894 24.6651 37.1733 24.8214 37.1907 25.0249C37.2081 25.2298 37.0546 25.4124 36.8483 25.4298C36.8483 25.4298 36.847 25.4298 36.847 25.4285C36.8371 25.4298 36.8273 25.4298 36.8171 25.4298L36.817 25.4298Z" fill="#FFFFE3"/>
<path d="M40.0012 52.0536C39.4387 52.0536 38.8713 52.0196 38.3164 51.9522C38.2164 51.9397 38.1275 51.8897 38.065 51.8111C38.0039 51.7326 37.9762 51.6335 37.9887 51.5348C38.0137 51.3312 38.2025 51.1826 38.4061 51.2071C38.9338 51.271 39.4699 51.3035 40.0012 51.3035C43.4789 51.3035 46.7485 49.9487 49.2087 47.4897C51.6685 45.0286 53.0226 41.7598 53.0226 38.2822C53.0226 34.8045 51.669 31.5335 49.2087 29.0733C46.749 26.6135 43.4788 25.2581 40.0012 25.2581C36.5235 25.2581 33.2539 26.6129 30.7936 29.0733C28.3347 31.533 26.9798 34.8045 26.9798 38.2822C26.9798 43.0648 29.595 47.4545 33.8048 49.737L33.8062 49.7384C33.9263 49.8035 34.0026 49.9294 34.0026 50.0674C34.0026 50.1299 33.9865 50.1924 33.9562 50.246C33.891 50.3674 33.7651 50.4424 33.6263 50.4424C33.5651 50.4424 33.5026 50.4272 33.4486 50.3973C31.3022 49.2348 29.4973 47.516 28.2271 45.4285C26.9208 43.2798 26.2297 40.8098 26.2297 38.2821C26.2297 36.4231 26.5949 34.6196 27.3123 32.921C28.0061 31.2807 28.9985 29.8085 30.2636 28.5432C31.5288 27.2772 33.0011 26.2843 34.6414 25.5906C36.3387 24.8718 38.1427 24.508 40.0011 24.508C41.8609 24.508 43.6636 24.8718 45.3623 25.5906C47.0025 26.2843 48.4747 27.2767 49.74 28.5432C51.0039 29.8084 51.9976 31.2807 52.6913 32.921C53.4087 34.6196 53.7726 36.4236 53.7726 38.2821C53.7726 40.1411 53.4087 41.9446 52.6913 43.6419C51.9976 45.2821 51.0038 46.7543 49.74 48.0196C48.4748 49.2847 47.0025 50.2772 45.3623 50.9709C43.6636 51.6897 41.8609 52.0535 40.0011 52.0535L40.0012 52.0536ZM35.9222 51.4223C35.8834 51.4223 35.8459 51.4161 35.8084 51.4036C35.7133 51.3736 35.636 51.3071 35.5896 51.2187C35.5432 51.1299 35.5347 51.0286 35.5659 50.9326C35.6146 50.7763 35.7584 50.6714 35.9222 50.6714C35.961 50.6714 35.9999 50.6777 36.0374 50.6902C36.2338 50.7527 36.3423 50.9638 36.2798 51.1616C36.2298 51.3169 36.0874 51.4223 35.9222 51.4223L35.9222 51.4223Z" fill="#FFFFE3"/>
<path d="M40.0012 44.5987C39.1485 44.5987 38.3213 44.4313 37.5422 44.1023C36.7908 43.7835 36.1145 43.3286 35.5346 42.7474C34.9547 42.1675 34.4998 41.4925 34.182 40.7399C33.8521 39.9613 33.6846 39.1349 33.6846 38.2823C33.6846 37.4296 33.852 36.6024 34.182 35.8233C34.4994 35.0719 34.9543 34.3956 35.5346 33.8157C36.1146 33.2358 36.7909 32.7809 37.5422 32.4631C38.3208 32.1331 39.1485 31.9666 40.0012 31.9657C40.8538 31.9671 41.681 32.1331 42.4601 32.4631C43.2128 32.7805 43.8878 33.2354 44.4677 33.8157C45.0476 34.3956 45.5038 35.072 45.8213 35.8233C46.1512 36.6019 46.3177 37.4296 46.3177 38.2823C46.3177 39.1349 46.1503 39.9621 45.8213 40.7399C45.5039 41.4925 45.0476 42.1675 44.4677 42.7474C43.8878 43.3286 43.2128 43.7836 42.4601 44.1023C41.6811 44.4313 40.8534 44.5987 40.0012 44.5987ZM40.0012 32.7164C38.515 32.7177 37.1173 33.2963 36.0663 34.3476C35.015 35.3989 34.4364 36.7963 34.4351 38.2825C34.4364 39.7673 35.015 41.1651 36.0663 42.2173C37.1176 43.2695 38.515 43.8485 40.0012 43.8485C41.4873 43.8485 42.886 43.2695 43.9373 42.2173C44.9886 41.1646 45.5672 39.7673 45.5672 38.2825C45.5672 36.7963 44.9886 35.3986 43.9373 34.3476C42.8859 33.2963 41.4886 32.7172 40.0012 32.7164Z" fill="#FFFFE3"/>
<path d="M55.8343 61.2078C55.7343 61.2078 55.6392 61.169 55.5691 61.0994L45.8754 51.4052C45.7754 51.3052 45.7406 51.1601 45.783 51.0253C45.8267 50.8905 45.9406 50.7927 46.0794 50.7704C49.5883 50.1931 52.9906 49.1155 56.1946 47.5668C56.3357 47.4981 56.512 47.528 56.6232 47.6391L62.8267 53.8405C62.8982 53.9119 62.937 54.0057 62.937 54.1057C62.937 54.2057 62.8982 54.2994 62.8267 54.3709L56.0995 61.0994C56.0281 61.1691 55.9344 61.2079 55.8344 61.2079L55.8343 61.2078ZM46.9165 51.3851L55.8338 60.3025L62.0312 54.1051L56.2799 48.3578C53.3031 49.7702 50.1532 50.789 46.9165 51.385V51.3851ZM23.657 29.0297C23.557 29.0297 23.4633 28.9908 23.3919 28.9198L17.1767 22.706C17.1066 22.6359 17.0668 22.5399 17.0668 22.4408C17.0668 22.3422 17.107 22.2458 17.1767 22.1757L23.9043 15.448C24.0431 15.3078 24.2954 15.3078 24.4356 15.448L34.1418 25.1569C34.2418 25.2569 34.2767 25.4033 34.2329 25.5368C34.1905 25.6716 34.0767 25.7694 33.9365 25.7917C30.4227 26.3667 27.0191 27.4431 23.8204 28.9917C23.7695 29.0172 23.7146 29.0297 23.657 29.0297L23.657 29.0297ZM17.9731 22.4413L23.7343 28.2025C26.708 26.7886 29.8579 25.7713 33.1003 25.1774L24.1691 16.2435L17.9731 22.4413Z" fill="#FFFFE3"/>
<path d="M20.0652 25.4364C19.9652 25.4364 19.8701 25.3976 19.8 25.3266C19.6535 25.1802 19.6535 24.9427 19.8 24.7967L22.666 21.9293C22.8084 21.7882 23.0549 21.7882 23.1959 21.9293C23.3424 22.0757 23.3424 22.3141 23.1959 22.4592L20.3299 25.3266C20.2589 25.398 20.1652 25.4364 20.0652 25.4364Z" fill="#FFFFE3"/>
<path d="M22.3223 27.6981C22.2223 27.6981 22.1285 27.6593 22.0571 27.5883C21.9107 27.4419 21.9107 27.2035 22.0571 27.0584L26.1821 22.937C26.3232 22.7959 26.571 22.7959 26.7121 22.937C26.7821 23.0084 26.8219 23.1022 26.8219 23.2022C26.8219 23.3022 26.7817 23.3973 26.7121 23.4674L22.5884 27.5887C22.5174 27.6593 22.4237 27.6981 22.3223 27.6981L22.3223 27.6981Z" fill="#FFFFE3"/>
<path d="M48.9406 54.3153C48.8406 54.3153 48.7468 54.2764 48.6754 54.2055C48.604 54.1354 48.5656 54.0403 48.5656 53.9403C48.5656 53.8403 48.6044 53.7465 48.6754 53.6751L52.7991 49.5537C52.9406 49.4127 53.1879 49.4127 53.3303 49.5551C53.4004 49.6252 53.4392 49.7202 53.4392 49.8202C53.4392 49.9202 53.4004 50.014 53.3294 50.0854L49.2058 54.2068C49.1357 54.2764 49.0406 54.3153 48.9406 54.3153H48.9406Z" fill="#FFFFE3"/>
<path d="M51.1166 56.4913C51.0166 56.4913 50.9228 56.4524 50.8514 56.3815C50.705 56.235 50.705 55.9975 50.8514 55.8515L53.7228 52.9841C53.8639 52.843 54.1117 52.843 54.2527 52.9855C54.3992 53.1319 54.3992 53.3689 54.2527 53.5154L51.3813 56.3819C51.3103 56.4524 51.2166 56.4913 51.1166 56.4913V56.4913Z" fill="#FFFFE3"/>
<path d="M53.3772 58.753C53.2772 58.753 53.1834 58.7141 53.112 58.6432C52.9656 58.4967 52.9656 58.2592 53.112 58.1133L57.237 53.9919C57.3794 53.8508 57.6258 53.8508 57.7669 53.9919C57.9133 54.1383 57.9133 54.3758 57.7669 54.5218L53.6433 58.6432C53.5718 58.7141 53.4767 58.753 53.3772 58.753H53.3772Z" fill="#FFFFE3"/>
<path d="M18.3314 61.4616C18.2314 61.4616 18.135 61.4214 18.0654 61.3517C17.9716 61.258 17.9341 61.1205 17.968 60.9919L20.2167 52.3884C20.2328 52.3232 20.2667 52.2661 20.3141 52.2183L24.4114 48.1197C24.519 48.0134 24.69 47.9808 24.8288 48.0433C27.9337 49.4295 31.215 50.3808 34.5815 50.871C34.7239 50.8924 34.8391 50.9884 34.8842 51.1245C34.9293 51.2594 34.894 51.4058 34.7931 51.5071L27.202 59.1036C27.2007 59.1036 27.2007 59.1049 27.2007 59.1049C27.0596 59.2465 26.8119 59.2465 26.6708 59.1049C26.5994 59.034 26.561 58.9402 26.561 58.8402C26.561 58.7402 26.5998 58.6451 26.6699 58.575L33.7422 51.5001C30.6511 50.9876 27.6284 50.0902 24.761 48.8326L20.9158 52.6764L18.8561 60.5626L26.006 58.6951C26.2033 58.6425 26.4123 58.7661 26.4636 58.9626C26.5163 59.1626 26.3962 59.3675 26.1962 59.4201L18.4252 61.4492C18.394 61.4581 18.3627 61.4617 18.3315 61.4617L18.3314 61.4616ZM53.272 27.7107C53.2269 27.7107 53.1818 27.7031 53.1394 27.687C51.2755 26.9808 49.322 26.421 47.3331 26.0219C47.197 25.9942 47.088 25.8956 47.0483 25.763C47.0072 25.6304 47.0434 25.4866 47.1421 25.3893L49.2358 23.2956C49.3746 23.1554 49.626 23.1554 49.7657 23.2956L53.5371 27.0706C53.6621 27.1956 53.6822 27.392 53.5871 27.5393C53.5184 27.6469 53.3996 27.7108 53.2719 27.7108L53.272 27.7107ZM48.1622 25.4294C49.406 25.7018 50.6434 26.0393 51.8399 26.433L49.4997 24.0906L48.1622 25.4294Z" fill="#FFFFE3"/>
<path d="M56.864 29.2844C56.8064 29.2844 56.7475 29.2706 56.6966 29.2442C55.5355 28.6603 54.339 28.1366 53.1418 27.6866C53.0918 27.6679 53.0444 27.638 53.0078 27.6005L49.2364 23.8255C49.165 23.7541 49.1266 23.6603 49.1266 23.5603C49.1266 23.4603 49.1654 23.3666 49.2364 23.2952L51.365 21.1652C51.5038 21.0264 51.7561 21.025 51.8962 21.1652L58.2511 27.5214C58.3212 27.5915 58.3609 27.6875 58.3609 27.7866C58.3609 27.8853 58.3207 27.9817 58.2511 28.0518L57.1288 29.1741C57.0591 29.2455 56.9654 29.2844 56.864 29.2844V29.2844ZM53.4814 27.0144C54.5939 27.4345 55.7064 27.9179 56.7903 28.4532L57.4564 27.7871L51.6301 21.9621L50.0315 23.5607L53.4814 27.0144Z" fill="#FFFFE3"/>
<path d="M57.9863 28.161C57.8863 28.161 57.7925 28.1221 57.7211 28.0511L51.3649 21.6963C51.2948 21.6249 51.2551 21.5302 51.2551 21.4302C51.2551 21.3302 51.2948 21.2365 51.3649 21.165L53.9747 18.5552C54.3609 18.169 54.8136 17.8704 55.3185 17.6664C55.806 17.469 56.3212 17.369 56.8484 17.369H56.852C57.3806 17.369 57.8944 17.469 58.3819 17.6664C58.8869 17.8699 59.3395 18.169 59.7257 18.5552L60.8605 19.6914C61.2467 20.0775 61.5467 20.5289 61.7507 21.0351C61.948 21.5226 62.0472 22.0378 62.0472 22.5663C62.0472 23.094 61.9485 23.6101 61.7507 24.0975C61.5472 24.6025 61.2472 25.0551 60.8605 25.4413L58.2507 28.0511C58.1815 28.1226 58.0864 28.161 57.9864 28.161H57.9863ZM52.1613 21.4298L57.9863 27.256L60.3314 24.9109C60.9538 24.2872 61.2975 23.4547 61.2975 22.5658C61.2975 21.6756 60.9538 20.8435 60.3314 20.2206L59.1966 19.0845C58.573 18.4621 57.7404 18.1193 56.8515 18.1184C55.9613 18.1197 55.1292 18.4621 54.5063 19.0845L52.1613 21.4298Z" fill="#FFFFE3"/>
<path d="M31.9075 54.2399C31.8075 54.2399 31.7137 54.201 31.6423 54.13L27.3146 49.801C27.1682 49.6546 27.1682 49.4175 27.3146 49.2711C27.4557 49.13 27.7035 49.13 27.8445 49.2711L32.1722 53.5997C32.2436 53.6698 32.282 53.7644 32.282 53.8648C32.282 53.9648 32.2432 54.0586 32.1722 54.13C32.1025 54.201 32.0075 54.2398 31.9075 54.2398V54.2399Z" fill="#FFFFE3"/>
<path d="M52.4 27.3918C52.3 27.3918 52.2063 27.353 52.1348 27.282C51.9884 27.1356 51.9884 26.8981 52.1348 26.7521L52.4125 26.4758C52.5536 26.3334 52.8014 26.3334 52.9424 26.4758C53.0134 26.5459 53.0523 26.6409 53.0523 26.7409C53.0523 26.8409 53.0121 26.9347 52.9424 27.0061L52.6648 27.2825C52.5951 27.353 52.5014 27.3918 52.4 27.3918Z" fill="#FFFFE3"/>
<path d="M40.0012 42.3473C38.9163 42.3473 37.8949 41.9249 37.1275 41.1571C36.3601 40.3883 35.9364 39.3683 35.9364 38.2821C35.9364 37.196 36.36 36.1746 37.1275 35.4072C37.8949 34.6411 38.9163 34.2184 40.0012 34.2184C41.0873 34.2184 42.1075 34.6407 42.8749 35.4072C43.6436 36.1746 44.066 37.196 44.066 38.2821C44.066 39.3683 43.6432 40.3884 42.8749 41.1571C42.1075 41.9245 41.0873 42.3473 40.0012 42.3473ZM40.0012 34.9669C38.1775 34.9705 36.69 36.458 36.686 38.2821C36.6895 40.1072 38.1771 41.5946 40.0012 41.5973C41.8262 41.5946 43.3124 40.1072 43.3164 38.2821C43.3124 36.4585 41.8262 34.9709 40.0012 34.9669Z" fill="#FFFFE3"/>
<path d="M26.9349 59.2135C26.8376 59.2135 26.7461 59.176 26.676 59.11L22.5912 55.2301C22.4412 55.0877 22.4349 54.8502 22.5773 54.7002C22.7148 54.5538 22.9621 54.5475 23.1072 54.6863L27.192 58.5662C27.2644 58.635 27.3072 58.7287 27.3094 58.8287C27.3121 58.9287 27.2746 59.0238 27.2059 59.0961C27.1349 59.1711 27.0389 59.2135 26.9349 59.2135L26.9349 59.2135Z" fill="#FFFFE3"/>
<path d="M61.8206 63.1038H34.12C33.9138 63.1038 33.745 62.9364 33.745 62.7288C33.745 62.5226 33.9138 62.3539 34.12 62.3539H61.8217C62.028 62.3539 62.1967 62.5226 62.1967 62.7288C62.1963 62.9364 62.028 63.1038 61.8213 63.1038H61.8206Z" fill="#FFFFE3"/>
<path d="M41.0149 64.7884H21.848C21.6418 64.7884 21.473 64.621 21.473 64.4134C21.473 64.2072 21.6418 64.0384 21.848 64.0384H41.0137C41.2213 64.0384 41.3887 64.2072 41.3887 64.4134C41.3892 64.621 41.2213 64.7884 41.0142 64.7884H41.0149Z" fill="#FFFFE3"/>
<path d="M19.888 64.7884H17.488C17.2817 64.7884 17.113 64.621 17.113 64.4134C17.113 64.2072 17.2818 64.0384 17.488 64.0384H19.888C20.0943 64.0384 20.263 64.2072 20.263 64.4134C20.263 64.621 20.0942 64.7884 19.888 64.7884Z" fill="#FFFFE3"/>
<path d="M58.3292 64.7358H49.2479C49.0417 64.7358 48.8729 64.5671 48.8729 64.3608C48.8729 64.1546 49.0417 63.9858 49.2479 63.9858H58.3292C58.5354 63.9858 58.7042 64.1546 58.7042 64.3608C58.7042 64.5671 58.5354 64.7358 58.3292 64.7358Z" fill="#FFFFE3"/>
<path d="M62.2229 39.8261C61.3715 39.8261 60.6791 39.1337 60.6791 38.2824C60.6804 37.4297 61.3729 36.736 62.2229 36.736C63.0715 36.736 63.7639 37.4297 63.7666 38.2824C63.7658 39.1337 63.0742 39.8261 62.2229 39.8261ZM62.2229 37.4859C61.7854 37.4872 61.4291 37.8448 61.4291 38.2823C61.4305 38.7198 61.7867 39.0761 62.2229 39.0761C62.659 39.0761 63.0153 38.7198 63.0166 38.2823C63.0166 37.8448 62.6604 37.4873 62.2229 37.4859Z" fill="#FFFFE3"/>
<path d="M17.008 39.8261C16.1553 39.8261 15.4616 39.1337 15.4607 38.2824C15.462 37.4297 16.1558 36.736 17.008 36.736C17.8567 36.736 18.549 37.4297 18.5518 38.2824C18.5504 39.1337 17.8594 39.8261 17.008 39.8261ZM17.008 37.4859C16.5692 37.4872 16.2116 37.8448 16.2107 38.2823C16.212 38.7198 16.5696 39.0761 17.008 39.0761C17.4442 39.0761 17.8004 38.7198 17.8018 38.2823C17.8018 37.8448 17.4455 37.4873 17.008 37.4859Z" fill="#FFFFE3"/>
<path d="M29.0537 38.6581C28.8475 38.6581 28.6787 38.4907 28.6787 38.2831C28.6787 36.7545 28.9787 35.2719 29.5689 33.8756C30.139 32.5283 30.9551 31.3166 31.9952 30.2769C33.0354 29.2368 34.2465 28.4207 35.5938 27.8507C36.9903 27.2605 38.4725 26.9605 40.0014 26.9605C40.209 26.9605 40.3764 27.1292 40.3764 27.3355C40.3764 27.5431 40.209 27.7105 40.0014 27.7105C37.1777 27.7105 34.5228 28.8105 32.525 30.8078C30.5286 32.8043 29.4286 35.4592 29.4286 38.2828C29.4286 38.4908 29.2612 38.6583 29.0536 38.6583L29.0537 38.6581Z" fill="#FFFFE3"/>
<path d="M44.4092 48.6799C44.2605 48.6799 44.1252 48.5924 44.0654 48.4562C43.9828 48.2674 44.069 48.045 44.2578 47.9624C48.0953 46.2723 50.5752 42.4736 50.5739 38.2826V38.2812C50.5753 38.075 50.7427 37.9076 50.9489 37.9076C51.1565 37.9076 51.3239 38.0763 51.3239 38.2826C51.3239 40.5228 50.6713 42.6875 49.4351 44.5451C48.2302 46.3563 46.545 47.775 44.5602 48.6486C44.5115 48.67 44.4615 48.6799 44.4093 48.6799L44.4092 48.6799Z" fill="#FFFFE3"/>
</svg>
