<svg width="80" height="80" viewBox="0 0 80 80" fill="none" xmlns="http://www.w3.org/2000/svg">
<path d="M49.8307 69.6375H19.2719C18.7848 69.6375 18.3272 69.4482 17.9831 69.1035L10.4772 61.6009C10.133 61.2558 9.94286 60.7982 9.94286 60.3112V16.5203C9.94286 13.1306 12.7009 10.3726 16.0906 10.3726H56.4301C56.8104 10.3726 57.1542 10.6016 57.2997 10.9534C57.4457 11.3056 57.3649 11.7096 57.0957 11.9793C56.9506 12.1243 56.7086 12.2708 56.5046 12.2989C54.6416 12.5525 53.1524 14.023 52.8831 15.8743C52.872 15.9507 52.8519 16.0252 52.8233 16.0949L52.8237 43.4674C52.8237 43.9875 52.4028 44.4085 51.8827 44.4085C51.3626 44.4085 50.9416 43.9875 50.9416 43.4674L50.9412 15.8092C50.9412 15.6444 50.9845 15.4837 51.0644 15.3431C51.2903 14.1583 51.8621 13.0922 52.6711 12.2547H16.0917C13.7394 12.2547 11.8261 14.1686 11.8261 16.5203V60.3112L19.3144 67.7728L49.831 67.7554C50.4431 67.7554 50.9413 67.2572 50.9413 66.6451V53.0486C50.9413 52.5285 51.3622 52.1075 51.8823 52.1075C52.4024 52.1075 52.8234 52.5285 52.8234 53.0486V66.6451C52.8239 68.2952 51.481 69.638 49.831 69.638L49.8307 69.6375Z" fill="#FFFFE3"/>
<path d="M62.297 21.2272H51.8827C51.3626 21.2272 50.9416 20.8062 50.9416 20.2861L50.9412 16.5196C50.9412 16.1647 50.9698 15.8486 51.0296 15.5535C51.4091 12.925 53.56 10.7982 56.2511 10.4322C58.1288 10.1612 60.0663 10.8063 61.435 12.175C62.5975 13.3366 63.2381 14.8799 63.2381 16.5197V20.2862C63.2381 20.8068 62.8171 21.2273 62.297 21.2273L62.297 21.2272ZM52.8237 19.345H61.3559V16.5195C61.3559 15.3825 60.9112 14.3128 60.1041 13.5057C59.1563 12.5588 57.8532 12.1057 56.5112 12.2972C54.6416 12.5508 53.1527 14.0214 52.8835 15.8736C52.8402 16.0986 52.8237 16.2883 52.8237 16.5196L52.8237 19.345Z" fill="#FFFFE3"/>
<path d="M18.9107 69.6375C18.3911 69.6375 17.9696 69.2165 17.9696 68.6964V61.5575L10.8898 61.6165C10.3701 61.6165 9.94868 61.1955 9.94868 60.6754C9.94868 60.1553 10.3701 59.7343 10.8898 59.7343H18.0286C19.034 59.7343 19.8523 60.5522 19.8523 61.558V68.6968C19.8523 69.2165 19.4308 69.6375 18.9108 69.6375L18.9107 69.6375Z" fill="#FFFFE3"/>
<path d="M26.7324 45.4146H15.8413C15.3217 45.4146 14.9003 44.9936 14.9003 44.4735V33.582C14.9003 33.0619 15.3217 32.6409 15.8413 32.6409H26.7324C27.2525 32.6409 27.6735 33.0619 27.6735 33.582V44.4735C27.6735 44.9941 27.2525 45.4146 26.7324 45.4146ZM16.7825 43.5325H25.7914V34.5231H16.7825V43.5325Z" fill="#FFFFE3"/>
<path d="M46.1199 18.1918H16.1816C15.6619 18.1918 15.2405 17.7709 15.2405 17.2508C15.2405 16.7307 15.6619 16.3097 16.1816 16.3097H46.1199C46.64 16.3097 47.0609 16.7307 47.0609 17.2508C47.0609 17.7709 46.64 18.1918 46.1199 18.1918Z" fill="#FFFFE3"/>
<path d="M46.1199 23.7312H16.1816C15.6619 23.7312 15.2405 23.3102 15.2405 22.7901C15.2405 22.27 15.6619 21.8491 16.1816 21.8491H46.1199C46.64 21.8491 47.0609 22.27 47.0609 22.7901C47.0609 23.3102 46.64 23.7312 46.1199 23.7312Z" fill="#FFFFE3"/>
<path d="M46.1199 29.2717H16.1816C15.6619 29.2717 15.2405 28.8508 15.2405 28.3307C15.2405 27.8106 15.6619 27.3896 16.1816 27.3896H46.1199C46.64 27.3896 47.0609 27.8106 47.0609 28.3307C47.0609 28.8508 46.64 29.2717 46.1199 29.2717Z" fill="#FFFFE3"/>
<path d="M46.1199 34.8112H31.1507C30.6306 34.8112 30.2096 34.3902 30.2096 33.8701C30.2096 33.35 30.6306 32.929 31.1507 32.929H46.1199C46.64 32.929 47.0609 33.35 47.0609 33.8701C47.0609 34.3902 46.64 34.8112 46.1199 34.8112Z" fill="#FFFFE3"/>
<path d="M46.1199 40.3506H31.1507C30.6306 40.3506 30.2096 39.9296 30.2096 39.4095C30.2096 38.8894 30.6306 38.4684 31.1507 38.4684H46.1199C46.64 38.4684 47.0609 38.8894 47.0609 39.4095C47.0609 39.9296 46.64 40.3506 46.1199 40.3506Z" fill="#FFFFE3"/>
<path d="M46.1199 45.89H31.1507C30.6306 45.89 30.2096 45.469 30.2096 44.9489C30.2096 44.4289 30.6306 44.0079 31.1507 44.0079H46.1199C46.64 44.0079 47.0609 44.4289 47.0609 44.9489C47.0609 45.469 46.64 45.89 46.1199 45.89Z" fill="#FFFFE3"/>
<path d="M33.5153 51.4295H16.1816C15.6619 51.4295 15.2405 51.0085 15.2405 50.4884C15.2405 49.9683 15.6619 49.5473 16.1816 49.5473H33.5153C34.0354 49.5473 34.4564 49.9683 34.4564 50.4884C34.4564 51.0085 34.0354 51.4295 33.5153 51.4295Z" fill="#FFFFE3"/>
<path d="M33.5153 56.97H16.1816C15.6619 56.97 15.2405 56.5491 15.2405 56.029C15.2405 55.5089 15.6619 55.0879 16.1816 55.0879H33.5153C34.0354 55.0879 34.4564 55.5089 34.4564 56.029C34.4564 56.5491 34.0354 56.97 33.5153 56.97Z" fill="#FFFFE3"/>
<path d="M33.5153 62.5106H26.3233C25.8032 62.5106 25.3822 62.0896 25.3822 61.5696C25.3822 61.0495 25.8032 60.6285 26.3233 60.6285H33.5153C34.0354 60.6285 34.4564 61.0495 34.4564 61.5696C34.4564 62.0896 34.0354 62.5106 33.5153 62.5106Z" fill="#FFFFE3"/>
<path d="M38.6821 62.5106C38.4348 62.5106 38.1951 62.4133 38.0165 62.2347C37.7924 62.0115 37.6969 61.6896 37.7603 61.3798L38.9764 55.4651C39.013 55.2847 39.1023 55.1195 39.2326 54.9892L62.9024 31.3206C64.5649 29.6581 67.2689 29.6599 68.93 31.3206C69.7349 32.126 70.1792 33.1956 70.1792 34.3344C70.1792 35.4733 69.7354 36.5438 68.93 37.3492L45.2614 61.0177C45.1311 61.1481 44.9664 61.2374 44.7855 61.274L38.8722 62.4909C38.8092 62.5039 38.7458 62.5106 38.6824 62.5106L38.6821 62.5106ZM40.7629 56.1209L39.8915 60.3598L44.1295 59.4874L67.598 36.0189C68.0476 35.5684 68.2958 34.9711 68.2958 34.335C68.2958 33.6997 68.0485 33.1015 67.598 32.6519C66.6699 31.7238 65.1605 31.7238 64.2324 32.6519L40.7629 56.1209ZM44.5955 60.3521H44.6049H44.5955Z" fill="#FFFFE3"/>
<path d="M46.8879 59.0009C46.6472 59.0009 46.4062 58.9089 46.2222 58.725L41.5245 54.0281C41.1567 53.6602 41.1567 53.0647 41.5245 52.6972C41.8924 52.3294 42.4879 52.3294 42.8554 52.6972L47.5531 57.3941C47.921 57.762 47.921 58.3575 47.5531 58.725C47.3696 58.9089 47.1285 59.0009 46.8879 59.0009H46.8879Z" fill="#FFFFE3"/>
</svg>
