<svg width="80" height="80" viewBox="0 0 80 80" fill="none" xmlns="http://www.w3.org/2000/svg">
<path d="M66.9086 16.6286V18.6286H70.0006V23.5036H10.0006V18.6286H61.2577V16.6286H8.00058V63.4629H72.0006V16.6286H66.9086ZM70.0006 61.4629H10.0006V25.504H70.0006V61.4629Z" fill="#FFFFE3"/>
<path d="M63.1966 16.6286H65.0524V18.6286H63.1966V16.6286Z" fill="#FFFFE3"/>
<path d="M12.0789 20.0661H14.6097V22.0661H12.0789V20.0661Z" fill="#FFFFE3"/>
<path d="M16.5486 20.0661H19.0794V22.0661H16.5486V20.0661Z" fill="#FFFFE3"/>
<path d="M33.0343 49.0078L28.4062 43.4837L33.0343 37.9587L31.5013 36.6739L25.7973 43.4837L31.5013 50.2926L33.0343 49.0078Z" fill="#FFFFE3"/>
<path d="M48.4994 50.2912L54.2034 43.4823L48.4994 36.6734L46.9664 37.9582L51.5945 43.4823L46.9664 49.0073L48.4994 50.2912Z" fill="#FFFFE3"/>
<path d="M40.3566 37.1049L42.3114 37.5277L39.6435 49.8614L37.6887 49.4386L40.3566 37.1049Z" fill="#FFFFE3"/>
</svg>
