<svg width="392" height="43" viewBox="0 0 392 43" fill="none" xmlns="http://www.w3.org/2000/svg">
<g filter="url(#filter0_dd_707_1077)">
<rect x="1" y="1" width="390" height="40" rx="20" fill="white"/>
<path fill-rule="evenodd" clip-rule="evenodd" d="M26.64 21.2046C26.64 20.5664 26.5827 19.9527 26.4764 19.3636H18V22.845H22.8436C22.635 23.97 22.0009 24.9232 21.0477 25.5614V27.8196H23.9564C25.6582 26.2527 26.64 23.9455 26.64 21.2046Z" fill="#4285F4"/>
<path fill-rule="evenodd" clip-rule="evenodd" d="M18 30C20.43 30 22.4673 29.1941 23.9564 27.8196L21.0477 25.5614C20.2418 26.1014 19.2109 26.4205 18 26.4205C15.6559 26.4205 13.6718 24.8373 12.9641 22.71H9.95728V25.0418C11.4382 27.9832 14.4818 30 18 30Z" fill="#34A853"/>
<path fill-rule="evenodd" clip-rule="evenodd" d="M12.9641 22.71C12.7841 22.17 12.6818 21.5932 12.6818 21C12.6818 20.4068 12.7841 19.83 12.9641 19.29V16.9582H9.95727C9.34773 18.1732 9 19.5477 9 21C9 22.4523 9.34773 23.8268 9.95727 25.0418L12.9641 22.71Z" fill="#FBBC05"/>
<path fill-rule="evenodd" clip-rule="evenodd" d="M18 15.5795C19.3214 15.5795 20.5077 16.0336 21.4405 16.9255L24.0218 14.3441C22.4632 12.8918 20.4259 12 18 12C14.4818 12 11.4382 14.0168 9.95728 16.9582L12.9641 19.29C13.6718 17.1627 15.6559 15.5795 18 15.5795Z" fill="#EA4335"/>
<path d="M57.2139 23.4365C57.2139 22.999 57.0589 22.6618 56.749 22.4248C56.4437 22.1878 55.89 21.9486 55.0879 21.707C54.2858 21.4655 53.6478 21.1966 53.1738 20.9004C52.2669 20.3307 51.8135 19.5879 51.8135 18.6719C51.8135 17.8698 52.1393 17.209 52.791 16.6895C53.4473 16.1699 54.2972 15.9102 55.3408 15.9102C56.0335 15.9102 56.651 16.0378 57.1934 16.293C57.7357 16.5482 58.1618 16.9128 58.4717 17.3867C58.7816 17.8561 58.9365 18.3779 58.9365 18.9521H57.2139C57.2139 18.4326 57.0498 18.027 56.7217 17.7354C56.3981 17.4391 55.9333 17.291 55.3271 17.291C54.762 17.291 54.3223 17.4118 54.0078 17.6533C53.6979 17.8949 53.543 18.2321 53.543 18.665C53.543 19.0296 53.7116 19.335 54.0488 19.5811C54.3861 19.8226 54.9421 20.0596 55.7168 20.292C56.4915 20.5199 57.1136 20.7819 57.583 21.0781C58.0524 21.3698 58.3965 21.707 58.6152 22.0898C58.834 22.4681 58.9434 22.9124 58.9434 23.4229C58.9434 24.2523 58.6243 24.9131 57.9863 25.4053C57.3529 25.8929 56.4915 26.1367 55.4023 26.1367C54.6823 26.1367 54.0192 26.0046 53.4131 25.7402C52.8115 25.4714 52.3421 25.1022 52.0049 24.6328C51.6722 24.1634 51.5059 23.6165 51.5059 22.9922H53.2354C53.2354 23.5573 53.4222 23.9948 53.7959 24.3047C54.1696 24.6146 54.7051 24.7695 55.4023 24.7695C56.0039 24.7695 56.4551 24.6488 56.7559 24.4072C57.0612 24.1611 57.2139 23.8376 57.2139 23.4365ZM62.0674 26H60.4062V18.6035H62.0674V26ZM60.3037 16.6826C60.3037 16.4274 60.3835 16.2155 60.543 16.0469C60.707 15.8783 60.9395 15.7939 61.2402 15.7939C61.541 15.7939 61.7734 15.8783 61.9375 16.0469C62.1016 16.2155 62.1836 16.4274 62.1836 16.6826C62.1836 16.9333 62.1016 17.1429 61.9375 17.3115C61.7734 17.4756 61.541 17.5576 61.2402 17.5576C60.9395 17.5576 60.707 17.4756 60.543 17.3115C60.3835 17.1429 60.3037 16.9333 60.3037 16.6826ZM63.5918 22.2471C63.5918 21.0986 63.8607 20.1826 64.3984 19.499C64.9408 18.8109 65.6585 18.4668 66.5518 18.4668C67.3949 18.4668 68.0579 18.7607 68.541 19.3486L68.6162 18.6035H70.1133V25.7744C70.1133 26.7451 69.8102 27.5107 69.2041 28.0713C68.6025 28.6318 67.7891 28.9121 66.7637 28.9121C66.2214 28.9121 65.6904 28.7982 65.1709 28.5703C64.6559 28.347 64.264 28.0531 63.9951 27.6885L64.7812 26.6904C65.2917 27.2965 65.9206 27.5996 66.668 27.5996C67.2194 27.5996 67.6546 27.4492 67.9736 27.1484C68.2926 26.8522 68.4521 26.4147 68.4521 25.8359V25.3369C67.9736 25.8701 67.3356 26.1367 66.5381 26.1367C65.6722 26.1367 64.9635 25.7926 64.4121 25.1045C63.8652 24.4163 63.5918 23.4639 63.5918 22.2471ZM65.2461 22.3906C65.2461 23.1335 65.3965 23.7191 65.6973 24.1475C66.0026 24.5713 66.4242 24.7832 66.9619 24.7832C67.6318 24.7832 68.1286 24.4961 68.4521 23.9219V20.668C68.1377 20.1074 67.6455 19.8271 66.9756 19.8271C66.4287 19.8271 66.0026 20.0436 65.6973 20.4766C65.3965 20.9095 65.2461 21.5475 65.2461 22.3906ZM73.3672 18.6035L73.415 19.458C73.9619 18.7972 74.6797 18.4668 75.5684 18.4668C77.1087 18.4668 77.8926 19.3486 77.9199 21.1123V26H76.2588V21.208C76.2588 20.7386 76.1562 20.3923 75.9512 20.1689C75.7507 19.9411 75.4202 19.8271 74.96 19.8271C74.29 19.8271 73.791 20.1302 73.4629 20.7363V26H71.8018V18.6035H73.3672ZM84.8721 26H83.2109V18.6035H84.8721V26ZM83.1084 16.6826C83.1084 16.4274 83.1882 16.2155 83.3477 16.0469C83.5117 15.8783 83.7441 15.7939 84.0449 15.7939C84.3457 15.7939 84.5781 15.8783 84.7422 16.0469C84.9062 16.2155 84.9883 16.4274 84.9883 16.6826C84.9883 16.9333 84.9062 17.1429 84.7422 17.3115C84.5781 17.4756 84.3457 17.5576 84.0449 17.5576C83.7441 17.5576 83.5117 17.4756 83.3477 17.3115C83.1882 17.1429 83.1084 16.9333 83.1084 16.6826ZM88.2285 18.6035L88.2764 19.458C88.8232 18.7972 89.541 18.4668 90.4297 18.4668C91.9701 18.4668 92.7539 19.3486 92.7812 21.1123V26H91.1201V21.208C91.1201 20.7386 91.0176 20.3923 90.8125 20.1689C90.612 19.9411 90.2816 19.8271 89.8213 19.8271C89.1514 19.8271 88.6523 20.1302 88.3242 20.7363V26H86.6631V18.6035H88.2285ZM104.464 23.71L105.64 18.6035H107.26L105.243 26H103.876L102.29 20.9209L100.731 26H99.3643L97.3408 18.6035H98.9609L100.157 23.6553L101.675 18.6035H102.926L104.464 23.71ZM110.138 26H108.477V18.6035H110.138V26ZM108.374 16.6826C108.374 16.4274 108.454 16.2155 108.613 16.0469C108.777 15.8783 109.01 15.7939 109.311 15.7939C109.611 15.7939 109.844 15.8783 110.008 16.0469C110.172 16.2155 110.254 16.4274 110.254 16.6826C110.254 16.9333 110.172 17.1429 110.008 17.3115C109.844 17.4756 109.611 17.5576 109.311 17.5576C109.01 17.5576 108.777 17.4756 108.613 17.3115C108.454 17.1429 108.374 16.9333 108.374 16.6826ZM114.034 16.8057V18.6035H115.34V19.834H114.034V23.9629C114.034 24.2454 114.089 24.4505 114.198 24.5781C114.312 24.7012 114.513 24.7627 114.8 24.7627C114.991 24.7627 115.185 24.7399 115.381 24.6943V25.9795C115.003 26.0843 114.638 26.1367 114.287 26.1367C113.011 26.1367 112.373 25.4326 112.373 24.0244V19.834H111.156V18.6035H112.373V16.8057H114.034ZM118.252 19.4102C118.794 18.7812 119.48 18.4668 120.31 18.4668C121.886 18.4668 122.686 19.3669 122.709 21.167V26H121.048V21.2285C121.048 20.7181 120.936 20.3581 120.713 20.1484C120.494 19.9342 120.171 19.8271 119.742 19.8271C119.077 19.8271 118.58 20.1234 118.252 20.7158V26H116.591V15.5H118.252V19.4102ZM135.67 24.708C135.31 25.1774 134.811 25.5329 134.173 25.7744C133.535 26.016 132.81 26.1367 131.999 26.1367C131.165 26.1367 130.427 25.9476 129.784 25.5693C129.142 25.1911 128.645 24.651 128.294 23.9492C127.948 23.2428 127.768 22.4202 127.754 21.4814V20.7021C127.754 19.1982 128.114 18.0247 128.834 17.1816C129.554 16.334 130.559 15.9102 131.849 15.9102C132.956 15.9102 133.836 16.1836 134.487 16.7305C135.139 17.2773 135.531 18.0658 135.663 19.0957H133.968C133.776 17.8971 133.081 17.2979 131.883 17.2979C131.108 17.2979 130.518 17.5781 130.112 18.1387C129.711 18.6947 129.504 19.5127 129.49 20.5928V21.3584C129.49 22.4339 129.716 23.2702 130.167 23.8672C130.623 24.4596 131.254 24.7559 132.061 24.7559C132.945 24.7559 133.574 24.5553 133.947 24.1543V22.2061H131.896V20.8936H135.67V24.708ZM137.099 22.2334C137.099 21.5088 137.242 20.8571 137.529 20.2783C137.816 19.695 138.22 19.2484 138.739 18.9385C139.259 18.624 139.856 18.4668 140.53 18.4668C141.528 18.4668 142.337 18.7881 142.957 19.4307C143.581 20.0732 143.919 20.9255 143.969 21.9873L143.976 22.377C143.976 23.1061 143.834 23.7578 143.552 24.332C143.274 24.9062 142.873 25.3506 142.349 25.665C141.829 25.9795 141.228 26.1367 140.544 26.1367C139.5 26.1367 138.664 25.7904 138.035 25.0977C137.411 24.4004 137.099 23.473 137.099 22.3154V22.2334ZM138.76 22.377C138.76 23.138 138.917 23.735 139.231 24.168C139.546 24.5964 139.983 24.8105 140.544 24.8105C141.104 24.8105 141.54 24.5918 141.85 24.1543C142.164 23.7168 142.321 23.0765 142.321 22.2334C142.321 21.486 142.16 20.8936 141.836 20.4561C141.517 20.0186 141.082 19.7998 140.53 19.7998C139.988 19.7998 139.557 20.0163 139.238 20.4492C138.919 20.8776 138.76 21.5202 138.76 22.377ZM145.069 22.2334C145.069 21.5088 145.213 20.8571 145.5 20.2783C145.787 19.695 146.19 19.2484 146.71 18.9385C147.229 18.624 147.826 18.4668 148.501 18.4668C149.499 18.4668 150.308 18.7881 150.928 19.4307C151.552 20.0732 151.889 20.9255 151.939 21.9873L151.946 22.377C151.946 23.1061 151.805 23.7578 151.522 24.332C151.244 24.9062 150.843 25.3506 150.319 25.665C149.8 25.9795 149.198 26.1367 148.515 26.1367C147.471 26.1367 146.635 25.7904 146.006 25.0977C145.382 24.4004 145.069 23.473 145.069 22.3154V22.2334ZM146.73 22.377C146.73 23.138 146.888 23.735 147.202 24.168C147.517 24.5964 147.954 24.8105 148.515 24.8105C149.075 24.8105 149.51 24.5918 149.82 24.1543C150.135 23.7168 150.292 23.0765 150.292 22.2334C150.292 21.486 150.13 20.8936 149.807 20.4561C149.488 20.0186 149.052 19.7998 148.501 19.7998C147.959 19.7998 147.528 20.0163 147.209 20.4492C146.89 20.8776 146.73 21.5202 146.73 22.377ZM153.061 22.2471C153.061 21.0986 153.329 20.1826 153.867 19.499C154.41 18.8109 155.127 18.4668 156.021 18.4668C156.864 18.4668 157.527 18.7607 158.01 19.3486L158.085 18.6035H159.582V25.7744C159.582 26.7451 159.279 27.5107 158.673 28.0713C158.071 28.6318 157.258 28.9121 156.232 28.9121C155.69 28.9121 155.159 28.7982 154.64 28.5703C154.125 28.347 153.733 28.0531 153.464 27.6885L154.25 26.6904C154.76 27.2965 155.389 27.5996 156.137 27.5996C156.688 27.5996 157.123 27.4492 157.442 27.1484C157.761 26.8522 157.921 26.4147 157.921 25.8359V25.3369C157.442 25.8701 156.804 26.1367 156.007 26.1367C155.141 26.1367 154.432 25.7926 153.881 25.1045C153.334 24.4163 153.061 23.4639 153.061 22.2471ZM154.715 22.3906C154.715 23.1335 154.865 23.7191 155.166 24.1475C155.471 24.5713 155.893 24.7832 156.431 24.7832C157.101 24.7832 157.597 24.4961 157.921 23.9219V20.668C157.606 20.1074 157.114 19.8271 156.444 19.8271C155.897 19.8271 155.471 20.0436 155.166 20.4766C154.865 20.9095 154.715 21.5475 154.715 22.3906ZM163.062 26H161.4V15.5H163.062V26ZM168.134 26.1367C167.081 26.1367 166.227 25.8063 165.57 25.1455C164.919 24.4801 164.593 23.596 164.593 22.4932V22.2881C164.593 21.5498 164.734 20.8913 165.017 20.3125C165.304 19.7292 165.705 19.2757 166.22 18.9521C166.735 18.6286 167.309 18.4668 167.942 18.4668C168.95 18.4668 169.727 18.7881 170.273 19.4307C170.825 20.0732 171.101 20.9824 171.101 22.1582V22.8281H166.268C166.318 23.4388 166.521 23.9219 166.876 24.2773C167.236 24.6328 167.687 24.8105 168.229 24.8105C168.991 24.8105 169.61 24.5029 170.089 23.8877L170.984 24.7422C170.688 25.1842 170.292 25.5283 169.795 25.7744C169.303 26.016 168.749 26.1367 168.134 26.1367ZM167.936 19.7998C167.48 19.7998 167.111 19.9593 166.828 20.2783C166.55 20.5973 166.372 21.0417 166.295 21.6113H169.46V21.4883C169.424 20.9323 169.275 20.513 169.016 20.2305C168.756 19.9434 168.396 19.7998 167.936 19.7998Z" fill="black" fill-opacity="0.54"/>
</g>
<defs>
<filter id="filter0_dd_707_1077" x="0" y="0" width="392" height="43" filterUnits="userSpaceOnUse" color-interpolation-filters="sRGB">
<feFlood flood-opacity="0" result="BackgroundImageFix"/>
<feColorMatrix in="SourceAlpha" type="matrix" values="0 0 0 0 0 0 0 0 0 0 0 0 0 0 0 0 0 0 127 0" result="hardAlpha"/>
<feOffset dy="1"/>
<feGaussianBlur stdDeviation="0.5"/>
<feColorMatrix type="matrix" values="0 0 0 0 0 0 0 0 0 0 0 0 0 0 0 0 0 0 0.168 0"/>
<feBlend mode="normal" in2="BackgroundImageFix" result="effect1_dropShadow_707_1077"/>
<feColorMatrix in="SourceAlpha" type="matrix" values="0 0 0 0 0 0 0 0 0 0 0 0 0 0 0 0 0 0 127 0" result="hardAlpha"/>
<feOffset/>
<feGaussianBlur stdDeviation="0.5"/>
<feColorMatrix type="matrix" values="0 0 0 0 0 0 0 0 0 0 0 0 0 0 0 0 0 0 0.084 0"/>
<feBlend mode="normal" in2="effect1_dropShadow_707_1077" result="effect2_dropShadow_707_1077"/>
<feBlend mode="normal" in="SourceGraphic" in2="effect2_dropShadow_707_1077" result="shape"/>
</filter>
</defs>
</svg>
