<svg width="48" height="48" viewBox="0 0 48 48" fill="none" xmlns="http://www.w3.org/2000/svg">
<circle cx="24" cy="24" r="23.5" stroke="#FFFFE3"/>
<path d="M23.816 33.216C27.272 33.216 29.624 31.248 29.624 28.368C29.624 26.496 28.4 25.104 26.264 24.528C27.944 23.736 28.88 22.464 28.88 20.88C28.88 18.336 26.864 16.536 23.744 16.536C20.792 16.536 18.536 18.528 18.464 21.192H20.816C20.888 19.536 21.992 18.48 23.648 18.48C25.28 18.48 26.36 19.512 26.36 21.048C26.36 22.632 25.16 23.688 23.336 23.688H21.776V25.632H23.456C25.688 25.632 27.104 26.712 27.104 28.416C27.104 30.168 25.856 31.272 23.816 31.272C21.848 31.272 20.552 30.144 20.456 28.392H18.08C18.104 31.248 20.456 33.216 23.816 33.216Z" fill="#FFFFE3"/>
</svg>
