<svg width="19" height="20" viewBox="0 0 19 20" fill="none" xmlns="http://www.w3.org/2000/svg">
<path d="M8.3393 0.5C10.6206 0.5 12.6857 1.42468 14.1811 2.91979C15.6763 4.41504 16.6009 6.48018 16.6009 8.76157C16.6009 10.8796 15.8034 12.8109 14.493 14.2734L18.7884 18.5687C18.966 18.7463 18.966 19.0337 18.7884 19.2113C18.6108 19.3889 18.3234 19.3889 18.1458 19.2113L13.8504 14.9159C12.3883 16.2263 10.4568 17.0238 8.33866 17.0238C6.05741 17.0238 3.99223 16.0991 2.49687 14.604C1.0023 13.1088 0.0770874 11.0436 0.0770874 8.76221C0.0770874 6.48082 1.00177 4.41579 2.49687 2.92043C3.99212 1.42586 6.05727 0.500643 8.33866 0.500643L8.3393 0.5ZM13.5382 3.5625C12.208 2.23229 10.3696 1.40904 8.3393 1.40904C6.30905 1.40904 4.47037 2.23229 3.14037 3.5625C1.81016 4.89329 0.986909 6.73118 0.986909 8.76143C0.986909 10.7919 1.81016 12.6304 3.14037 13.9604C4.47116 15.2911 6.30905 16.1138 8.3393 16.1138C10.3696 16.1138 12.2082 15.2906 13.5382 13.9604C14.869 12.6301 15.6917 10.7917 15.6917 8.76143C15.6917 6.731 14.8684 4.8925 13.5382 3.5625Z" fill="#FFFFE3"/>
</svg>
