<svg width="50" height="50" viewBox="0 0 50 50" fill="none" xmlns="http://www.w3.org/2000/svg">
<circle cx="25" cy="25" r="25" fill="#10100E"/>
<path d="M20.3962 17.4125C19.1454 17.4125 17.8964 17.9002 16.9576 18.8912C15.0796 20.8733 15.0822 24.0392 16.9576 26.0222L23.8961 33.3722C24.0545 33.5386 24.2744 33.6328 24.5041 33.6328C24.7339 33.6328 24.9537 33.5386 25.1123 33.3722C27.4283 30.9275 29.7437 28.4757 32.0598 26.0312C33.9377 24.0492 33.9375 20.8822 32.0598 18.9002C30.182 16.9182 27.0602 16.918 25.1823 18.9002L24.5084 19.609L23.8346 18.8914C22.8957 17.9004 21.6467 17.4127 20.3959 17.4127L20.3962 17.4125ZM20.3962 19.0574C21.1921 19.0574 21.9894 19.3818 22.6187 20.0461L23.905 21.4111L23.9048 21.4113C24.0634 21.5775 24.2831 21.6717 24.513 21.6717C24.7429 21.6717 24.9626 21.5775 25.1212 21.4113L26.3988 20.0551C27.6574 18.7266 29.5851 18.7266 30.8437 20.0551C32.1023 21.3836 32.1023 23.5478 30.8437 24.8764C28.732 27.1055 26.6204 29.341 24.5087 31.5704L18.1737 24.8679C16.9155 23.5372 16.9151 21.3839 18.1737 20.0554V20.0466C18.803 19.3823 19.6004 19.0579 20.3961 19.0579L20.3962 19.0574Z" fill="#FFFFE3"/>
</svg>
