<svg width="35" height="35" viewBox="0 0 35 35" fill="none" xmlns="http://www.w3.org/2000/svg">
<path d="M29.222 6.63279H25.0899V5.15214C25.0899 4.95702 24.9329 4.79999 24.7378 4.79999C24.5426 4.79999 24.3856 4.95702 24.3856 5.15214V6.63279H17.8566V5.15214C17.8566 4.95702 17.6996 4.79999 17.5045 4.79999C17.3093 4.79999 17.1523 4.95702 17.1523 5.15214V6.63279H10.6273V5.15214C10.6273 4.95702 10.4703 4.79999 10.2752 4.79999C10.08 4.79999 9.92301 4.95702 9.92301 5.15214V6.63279H5.78666C5.67631 6.63279 5.57026 6.64548 5.4642 6.66677C4.7429 6.80681 4.19995 7.44312 4.19995 8.20252V28.5705C4.19995 29.4953 4.95505 30.2506 5.88005 30.2506H29.1286C30.0534 30.2506 30.8087 29.4955 30.8087 28.5705V8.21952C30.8087 7.34567 30.096 6.63302 29.222 6.63302L29.222 6.63279ZM5.60846 7.35819C5.65924 7.34979 5.71452 7.3412 5.7696 7.3412H9.9186V8.2406C9.37975 8.39763 8.9852 8.8855 8.9852 9.47515C8.9852 10.1835 9.56215 10.7648 10.2748 10.7648C10.9875 10.7648 11.5645 10.1878 11.5645 9.47515C11.5645 8.8896 11.17 8.3976 10.6311 8.2406L10.6315 7.3412H17.1565V8.2406C16.6176 8.39763 16.2231 8.8855 16.2231 9.47515C16.2231 10.1835 16.8 10.7648 17.5127 10.7648C18.2254 10.7648 18.8024 10.1878 18.8024 9.47515C18.8024 8.8896 18.4079 8.3976 17.869 8.2406L17.8692 7.3412H24.3942V8.2406C23.8553 8.39763 23.4608 8.8855 23.4608 9.47515C23.4608 10.1835 24.0377 10.7648 24.7504 10.7648C25.4631 10.7648 26.0401 10.1878 26.0401 9.47515C26.0401 8.8896 25.6456 8.3976 25.1067 8.2406L25.1069 7.3412H29.0694C29.6463 7.3412 30.1172 7.8121 30.1172 8.38905V11.6089L4.90873 11.6091V8.21949C4.90873 7.79508 5.2099 7.44294 5.60873 7.35814L5.60846 7.35819ZM10.2708 8.89394C10.5889 8.89394 10.852 9.15273 10.852 9.47519C10.852 9.79335 10.5932 10.0564 10.2708 10.0564C9.9526 10.0564 9.68951 9.79765 9.68951 9.47519C9.69381 9.15702 9.9526 8.89394 10.2708 8.89394ZM17.5043 8.89394C17.8224 8.89394 18.0855 9.15273 18.0855 9.47519C18.0855 9.79335 17.8267 10.0564 17.5043 10.0564C17.1818 10.0564 16.923 9.79765 16.923 9.47519C16.923 9.15702 17.1861 8.89394 17.5043 8.89394ZM24.7378 8.89394C25.0559 8.89394 25.319 9.15273 25.319 9.47519C25.319 9.79335 25.0602 10.0564 24.7378 10.0564C24.4153 10.0564 24.1565 9.79765 24.1565 9.47519C24.1565 9.15702 24.4153 8.89394 24.7378 8.89394ZM29.1286 29.5374H5.88006C5.34551 29.5374 4.90856 29.1005 4.90856 28.5659V12.3174H30.1001V28.5699C30.0999 29.1045 29.663 29.5371 29.1284 29.5371L29.1286 29.5374Z" fill="#FFFFE3"/>
<path d="M9.70698 13.6581H7.42888C6.98337 13.6581 6.61853 14.0229 6.61853 14.4684V16.7465C6.61853 17.192 6.98338 17.5569 7.42888 17.5569H9.70698C10.1525 17.5569 10.5173 17.192 10.5173 16.7465V14.4684C10.5173 14.0229 10.1525 13.6581 9.70698 13.6581ZM9.80894 16.7466C9.80894 16.8016 9.76226 16.8483 9.70718 16.8483H7.42888C7.3738 16.8483 7.32711 16.8016 7.32711 16.7466V14.4685C7.32711 14.4134 7.37379 14.3667 7.42888 14.3667H9.70697C9.76206 14.3667 9.80874 14.4134 9.80874 14.4685L9.80894 16.7466Z" fill="#FFFFE3"/>
<path d="M15.6634 13.6581H13.3853C12.9398 13.6581 12.575 14.0229 12.575 14.4684V16.7465C12.575 17.192 12.9398 17.5569 13.3853 17.5569H15.6634C16.1089 17.5569 16.4738 17.192 16.4738 16.7465V14.4684C16.4738 14.0229 16.1089 13.6581 15.6634 13.6581ZM15.7652 16.7466C15.7652 16.8016 15.7185 16.8483 15.6634 16.8483H13.3853C13.3302 16.8483 13.2835 16.8016 13.2835 16.7466L13.2833 14.4685C13.2833 14.4134 13.33 14.3667 13.3851 14.3667H15.6632C15.7183 14.3667 15.765 14.4134 15.765 14.4685L15.7652 16.7466Z" fill="#FFFFE3"/>
<path d="M21.624 13.6581H19.3459C18.9004 13.6581 18.5355 14.0229 18.5355 14.4684V16.7465C18.5355 17.192 18.9004 17.5569 19.3459 17.5569H21.624C22.0695 17.5569 22.4343 17.192 22.4343 16.7465V14.4684C22.43 14.0229 22.0695 13.6581 21.624 13.6581ZM21.7216 16.7466C21.7216 16.8016 21.6749 16.8483 21.6199 16.8483H19.3418C19.2867 16.8483 19.24 16.8016 19.24 16.7466L19.2398 14.4685C19.2398 14.4134 19.2865 14.3667 19.3416 14.3667H21.6197C21.6748 14.3667 21.7214 14.4134 21.7214 14.4685L21.7216 16.7466Z" fill="#FFFFE3"/>
<path d="M27.5805 13.6581H25.3024C24.8569 13.6581 24.4921 14.0229 24.4921 14.4684V16.7465C24.4921 17.192 24.8569 17.5569 25.3024 17.5569H27.5805C28.026 17.5569 28.3909 17.192 28.3909 16.7465V14.4684C28.3909 14.0229 28.026 13.6581 27.5805 13.6581ZM27.6823 16.7466C27.6823 16.8016 27.6356 16.8483 27.5805 16.8483H25.3024C25.2473 16.8483 25.2007 16.8016 25.2007 16.7466L25.2005 14.4685C25.2005 14.4134 25.2471 14.3667 25.3022 14.3667H27.5803C27.6354 14.3667 27.6821 14.4134 27.6821 14.4685L27.6823 16.7466Z" fill="#FFFFE3"/>
<path d="M21.624 18.9016H19.3459C18.9004 18.9016 18.5355 19.2664 18.5355 19.7119V21.99C18.5355 22.4355 18.9004 22.8003 19.3459 22.8003H21.624C22.0695 22.8003 22.4343 22.4355 22.4343 21.99V19.7119C22.43 19.2623 22.0695 18.9016 21.624 18.9016ZM21.7216 21.9859C21.7216 22.041 21.6749 22.0877 21.6199 22.0877H19.3418C19.2867 22.0877 19.24 22.041 19.24 21.9859V19.7079C19.24 19.6528 19.2867 19.6061 19.3418 19.6061H21.6199C21.6749 19.6061 21.7216 19.6528 21.7216 19.7079V21.9859Z" fill="#FFFFE3"/>
<path d="M27.5805 18.9016H25.3024C24.8569 18.9016 24.4921 19.2664 24.4921 19.7119V21.99C24.4921 22.4355 24.8569 22.8003 25.3024 22.8003H27.5805C28.026 22.8003 28.3909 22.4355 28.3909 21.99V19.7119C28.3909 19.2623 28.026 18.9016 27.5805 18.9016ZM27.6823 21.9859C27.6823 22.041 27.6356 22.0877 27.5805 22.0877H25.3024C25.2473 22.0877 25.2007 22.041 25.2007 21.9859V19.7079C25.2007 19.6528 25.2473 19.6061 25.3024 19.6061H27.5805C27.6356 19.6061 27.6823 19.6528 27.6823 19.7079V21.9859Z" fill="#FFFFE3"/>
<path d="M21.624 24.137H19.3459C18.9004 24.137 18.5355 24.5019 18.5355 24.9474V27.2255C18.5355 27.671 18.9004 28.0358 19.3459 28.0358H21.624C22.0695 28.0358 22.4343 27.671 22.4343 27.2255V24.9474C22.43 24.5019 22.0695 24.137 21.624 24.137ZM21.7216 27.2255C21.7216 27.2806 21.6749 27.3273 21.6199 27.3273H19.3418C19.2867 27.3273 19.24 27.2806 19.24 27.2255L19.2398 24.9474C19.2398 24.8923 19.2865 24.8457 19.3416 24.8457H21.6197C21.6748 24.8457 21.7214 24.8923 21.7214 24.9474L21.7216 27.2255Z" fill="#FFFFE3"/>
<path d="M27.5805 24.137H25.3024C24.8569 24.137 24.4921 24.5019 24.4921 24.9474V27.2255C24.4921 27.671 24.8569 28.0358 25.3024 28.0358H27.5805C28.026 28.0358 28.3909 27.671 28.3909 27.2255V24.9474C28.3909 24.5019 28.026 24.137 27.5805 24.137ZM27.6823 27.2255C27.6823 27.2806 27.6356 27.3273 27.5805 27.3273H25.3024C25.2473 27.3273 25.2007 27.2806 25.2007 27.2255L25.2005 24.9474C25.2005 24.8923 25.2471 24.8457 25.3022 24.8457H27.5803C27.6354 24.8457 27.6821 24.8923 27.6821 24.9474L27.6823 27.2255Z" fill="#FFFFE3"/>
<path d="M9.70698 18.9016H7.42888C6.98337 18.9016 6.61853 19.2664 6.61853 19.7119V21.99C6.61853 22.4355 6.98338 22.8003 7.42888 22.8003H9.70698C10.1525 22.8003 10.5173 22.4355 10.5173 21.99V19.7119C10.5173 19.2623 10.1525 18.9016 9.70698 18.9016ZM9.80894 21.9859C9.80894 22.041 9.76226 22.0877 9.70718 22.0877H7.42888C7.3738 22.0877 7.32711 22.041 7.32711 21.9859V19.7079C7.32711 19.6528 7.37379 19.6061 7.42888 19.6061H9.70697C9.76206 19.6061 9.80874 19.6528 9.80874 19.7079L9.80894 21.9859Z" fill="#FFFFE3"/>
<path d="M15.6634 18.9016H13.3853C12.9398 18.9016 12.575 19.2664 12.575 19.7119V21.99C12.575 22.4355 12.9398 22.8003 13.3853 22.8003H15.6634C16.1089 22.8003 16.4738 22.4355 16.4738 21.99V19.7119C16.4738 19.2623 16.1089 18.9016 15.6634 18.9016ZM15.7652 21.9859C15.7652 22.041 15.7185 22.0877 15.6634 22.0877H13.3853C13.3302 22.0877 13.2835 22.041 13.2835 21.9859V19.7079C13.2835 19.6528 13.3302 19.6061 13.3853 19.6061H15.6634C15.7185 19.6061 15.7652 19.6528 15.7652 19.7079V21.9859Z" fill="#FFFFE3"/>
<path d="M9.70698 24.137H7.42888C6.98337 24.137 6.61853 24.5019 6.61853 24.9474V27.2255C6.61853 27.671 6.98338 28.0358 7.42888 28.0358H9.70698C10.1525 28.0358 10.5173 27.671 10.5173 27.2255V24.9474C10.5173 24.5019 10.1525 24.137 9.70698 24.137ZM9.80894 27.2255C9.80894 27.2806 9.76226 27.3273 9.70718 27.3273L7.42888 27.3275C7.3738 27.3275 7.32711 27.2808 7.32711 27.2257V24.9474C7.32711 24.8923 7.37379 24.8457 7.42888 24.8457H9.70697C9.76206 24.8457 9.80874 24.8923 9.80874 24.9474L9.80894 27.2255Z" fill="#FFFFE3"/>
<path d="M15.6634 24.137H13.3853C12.9398 24.137 12.575 24.5019 12.575 24.9474V27.2255C12.575 27.671 12.9398 28.0358 13.3853 28.0358H15.6634C16.1089 28.0358 16.4738 27.671 16.4738 27.2255V24.9474C16.4738 24.5019 16.1089 24.137 15.6634 24.137ZM15.7652 27.2255C15.7652 27.2806 15.7185 27.3273 15.6634 27.3273H13.3853C13.3302 27.3273 13.2835 27.2806 13.2835 27.2255L13.2833 24.9474C13.2833 24.8923 13.33 24.8457 13.3851 24.8457H15.6632C15.7183 24.8457 15.765 24.8923 15.765 24.9474L15.7652 27.2255Z" fill="#FFFFE3"/>
</svg>
