<svg width="25" height="25" viewBox="0 0 25 25" fill="none" xmlns="http://www.w3.org/2000/svg">
<path d="M12.2528 1.75262C9.46808 1.75262 6.79733 2.85887 4.82833 4.82802C2.85918 6.79717 1.75293 9.46787 1.75293 12.2525C1.75293 15.0372 2.85918 17.708 4.82833 19.677C6.79748 21.6462 9.46818 22.7524 12.2528 22.7524C15.0375 22.7524 17.7083 21.6462 19.6773 19.677C21.6465 17.7079 22.7527 15.0372 22.7527 12.2525C22.7527 9.46787 21.6465 6.79702 19.6773 4.82802C17.7082 2.85887 15.0375 1.75262 12.2528 1.75262ZM11.3778 4.37762C11.3778 4.06492 11.5446 3.77607 11.8153 3.61982C12.086 3.46357 12.4196 3.46357 12.6903 3.61982C12.961 3.77607 13.1278 4.06493 13.1278 4.37762V5.25262C13.1278 5.56531 12.961 5.85417 12.6903 6.01042C12.4196 6.16667 12.086 6.16667 11.8153 6.01042C11.5446 5.85417 11.3778 5.5653 11.3778 5.25262V4.37762ZM5.25283 13.1276H4.37783C4.06514 13.1276 3.77628 12.9608 3.62003 12.6901C3.46378 12.4194 3.46378 12.0858 3.62003 11.8151C3.77628 11.5444 4.06515 11.3776 4.37783 11.3776H5.25283C5.56553 11.3776 5.85438 11.5444 6.01063 11.8151C6.16688 12.0858 6.16688 12.4194 6.01063 12.6901C5.85438 12.9608 5.56552 13.1276 5.25283 13.1276ZM13.1278 20.1276C13.1278 20.4403 12.961 20.7292 12.6903 20.8854C12.4196 21.0417 12.086 21.0417 11.8153 20.8854C11.5446 20.7292 11.3778 20.4403 11.3778 20.1276V19.2526C11.3778 18.9399 11.5446 18.6511 11.8153 18.4948C12.086 18.3386 12.4196 18.3386 12.6903 18.4948C12.961 18.6511 13.1278 18.9399 13.1278 19.2526V20.1276ZM15.4991 15.4989C15.3349 15.6645 15.1112 15.7577 14.8778 15.7577C14.6444 15.7577 14.4208 15.6645 14.2565 15.4989L11.6315 12.8739C11.4679 12.7087 11.3765 12.4852 11.3778 12.2526V8.75262C11.3778 8.43992 11.5446 8.15107 11.8153 7.99482C12.086 7.83857 12.4196 7.83857 12.6903 7.99482C12.961 8.15107 13.1278 8.43993 13.1278 8.75262V11.8938L15.4991 14.2563C15.6647 14.4206 15.7579 14.6442 15.7579 14.8776C15.7579 15.111 15.6648 15.3346 15.4991 15.4989ZM21.0026 12.2526C21.0026 12.4846 20.9104 12.7073 20.7464 12.8714C20.5823 13.0354 20.3597 13.1276 20.1276 13.1276H19.2526C18.9399 13.1276 18.6511 12.9608 18.4948 12.6901C18.3386 12.4194 18.3386 12.0858 18.4948 11.8151C18.6511 11.5444 18.9399 11.3776 19.2526 11.3776H20.1276C20.3597 11.3776 20.5823 11.4698 20.7464 11.6339C20.9104 11.7979 21.0026 12.0206 21.0026 12.2526ZM20.8452 23.1286C20.9671 23.3044 21.0204 23.5187 20.995 23.7312C20.9696 23.9435 20.8675 24.1392 20.7077 24.2814C20.5478 24.4234 20.3415 24.5021 20.1276 24.5025C19.8413 24.5021 19.5733 24.3614 19.41 24.1263L18.4913 22.7962C18.9926 22.498 19.4721 22.1645 19.9264 21.7987L20.8452 23.1286ZM4.57871 21.7987C5.03301 22.1645 5.51251 22.4979 6.01386 22.7962L5.13886 24.1263C5.00625 24.3163 4.8039 24.446 4.57596 24.487C4.34784 24.528 4.11288 24.4769 3.92246 24.345C3.73242 24.2124 3.60274 24.0101 3.56172 23.7821C3.52071 23.554 3.57188 23.319 3.70371 23.1286L4.57871 21.7987ZM0.772461 7.99122C-0.0542889 6.64082 -0.227339 4.98947 0.301366 3.49687C0.830266 2.00427 2.00432 0.830267 3.49687 0.301367C4.98947 -0.227333 6.64082 -0.0542983 7.99122 0.772462C6.33967 1.38596 4.83987 2.34826 3.59417 3.59416C2.34827 4.83986 1.38596 6.33967 0.772461 7.99122ZM24.5025 5.25257C24.5027 6.21897 24.2363 7.16662 23.7326 7.99122C23.1191 6.33967 22.1568 4.83987 20.9109 3.59417C19.6652 2.34827 18.1654 1.38597 16.5138 0.772467C17.5798 0.120717 18.8435 -0.129483 20.0775 0.0668168C21.3115 0.263107 22.4351 0.893167 23.2462 1.84377C24.0572 2.79437 24.5027 4.00297 24.5025 5.25257Z" fill="#10100E"/>
</svg>
