<svg width="31" height="31" viewBox="0 0 31 31" fill="none" xmlns="http://www.w3.org/2000/svg">
<g clip-path="url(#clip0_1616_3669)">
<path d="M15.0922 2.71778C19.1247 2.71778 19.6022 2.73547 21.1881 2.80621C22.6619 2.87106 23.4578 3.11867 23.9884 3.32501C24.6899 3.59619 25.1969 3.92634 25.7216 4.45103C26.2522 4.98161 26.5765 5.48272 26.8477 6.18428C27.054 6.71486 27.3016 7.51664 27.3665 8.98459C27.4372 10.5763 27.4549 11.0539 27.4549 15.0804C27.4549 19.1129 27.4372 19.5904 27.3665 21.1763C27.3016 22.6501 27.054 23.446 26.8477 23.9766C26.5765 24.6781 26.2463 25.1852 25.7216 25.7098C25.191 26.2404 24.6899 26.5647 23.9884 26.8359C23.4578 27.0422 22.656 27.2898 21.1881 27.3547C19.5963 27.4254 19.1188 27.4431 15.0922 27.4431C11.0598 27.4431 10.5822 27.4254 8.99638 27.3547C7.52253 27.2898 6.72665 27.0422 6.19607 26.8359C5.49451 26.5647 4.98751 26.2345 4.46282 25.7098C3.93223 25.1793 3.60799 24.6781 3.3368 23.9766C3.13046 23.446 2.88285 22.6442 2.818 21.1763C2.74726 19.5845 2.72957 19.107 2.72957 15.0804C2.72957 11.048 2.74726 10.5705 2.818 8.98459C2.88285 7.51074 3.13046 6.71486 3.3368 6.18428C3.60799 5.48272 3.93813 4.97572 4.46282 4.45103C4.9934 3.92044 5.49451 3.59619 6.19607 3.32501C6.72665 3.11867 7.52843 2.87106 8.99638 2.80621C10.5822 2.73547 11.0598 2.71778 15.0922 2.71778ZM15.0922 0C10.9949 0 10.482 0.0176862 8.87258 0.088431C7.26903 0.159176 6.16659 0.418573 5.21153 0.789984C4.21521 1.17908 3.37217 1.69198 2.53502 2.53502C1.69198 3.37217 1.17908 4.21521 0.789984 5.20564C0.418573 6.16659 0.159176 7.26313 0.088431 8.86668C0.0176862 10.482 0 10.9949 0 15.0922C0 19.1895 0.0176862 19.7024 0.088431 21.3119C0.159176 22.9154 0.418573 24.0179 0.789984 24.9729C1.17908 25.9692 1.69198 26.8123 2.53502 27.6494C3.37217 28.4866 4.21521 29.0054 5.20564 29.3886C6.16659 29.76 7.26313 30.0194 8.86668 30.0901C10.4761 30.1609 10.989 30.1786 15.0863 30.1786C19.1836 30.1786 19.6965 30.1609 21.306 30.0901C22.9095 30.0194 24.012 29.76 24.967 29.3886C25.9575 29.0054 26.8005 28.4866 27.6376 27.6494C28.4748 26.8123 28.9936 25.9692 29.3768 24.9788C29.7482 24.0179 30.0076 22.9213 30.0783 21.3178C30.1491 19.7083 30.1668 19.1954 30.1668 15.0981C30.1668 11.0008 30.1491 10.4879 30.0783 8.87847C30.0076 7.27492 29.7482 6.17248 29.3768 5.21743C29.0054 4.21521 28.4925 3.37217 27.6494 2.53502C26.8123 1.69788 25.9692 1.17908 24.9788 0.795879C24.0179 0.424469 22.9213 0.165071 21.3178 0.0943264C19.7024 0.0176862 19.1895 0 15.0922 0Z" fill="white"/>
<path d="M15.0922 7.33984C10.8121 7.33984 7.33972 10.8122 7.33972 15.0923C7.33972 19.3724 10.8121 22.8447 15.0922 22.8447C19.3722 22.8447 22.8446 19.3724 22.8446 15.0923C22.8446 10.8122 19.3722 7.33984 15.0922 7.33984ZM15.0922 20.1211C12.3154 20.1211 10.0634 17.869 10.0634 15.0923C10.0634 12.3156 12.3154 10.0635 15.0922 10.0635C17.8689 10.0635 20.121 12.3156 20.121 15.0923C20.121 17.869 17.8689 20.1211 15.0922 20.1211Z" fill="white"/>
<path d="M24.9612 7.03304C24.9612 8.03525 24.1476 8.84293 23.1513 8.84293C22.1491 8.84293 21.3414 8.02936 21.3414 7.03304C21.3414 6.03082 22.155 5.22314 23.1513 5.22314C24.1476 5.22314 24.9612 6.03671 24.9612 7.03304Z" fill="white"/>
</g>
<defs>
<clipPath id="clip0_1616_3669">
<rect width="30.1845" height="30.1845" fill="white"/>
</clipPath>
</defs>
</svg>
