<svg width="29" height="18" viewBox="0 0 29 18" fill="none" xmlns="http://www.w3.org/2000/svg">
<path d="M28.4487 15.3808H26.8569V0.97482C26.8565 0.716472 26.7537 0.46872 26.5709 0.285967C26.3882 0.103214 26.1404 0.000414684 25.8821 0H2.95912C2.70077 0.000415322 2.45323 0.103421 2.27048 0.285967C2.08793 0.46872 1.98513 0.716478 1.98472 0.97482V15.3808H0.392918C0.1759 15.3808 0 15.5567 0 15.7737V16.6913C0.000623036 17.0383 0.138728 17.3708 0.384199 17.6162C0.629671 17.8615 0.962364 17.9996 1.30937 18H27.5323C27.8793 17.9996 28.212 17.8615 28.4574 17.6162C28.7029 17.3707 28.841 17.0383 28.8416 16.6913V15.7737C28.8416 15.5567 28.6657 15.3808 28.4487 15.3808ZM16.5521 0.785554L16.3213 1.2848H12.5197L12.2889 0.785554H16.5521ZM2.77022 0.974746C2.77147 0.87091 2.85537 0.787011 2.959 0.785554H11.4255L11.9139 1.84241C11.9783 1.98135 12.1172 2.07044 12.2703 2.07044H16.5727C16.7257 2.07044 16.8649 1.98135 16.929 1.84241L17.4177 0.785554H25.8826C25.9862 0.787008 26.0701 0.87091 26.0713 0.974746V15.3808H16.9876C16.8344 15.3808 16.6952 15.4698 16.6309 15.6088L16.3208 16.2781H12.5202L12.2101 15.6092V15.609C12.1459 15.4699 12.0068 15.3808 11.8535 15.3808H2.77037L2.77022 0.974746ZM28.0558 16.6913C28.0556 16.9803 27.8211 17.2146 27.5321 17.215H1.30917C1.02009 17.2146 0.785623 16.9803 0.785416 16.6913V16.1671H11.6028L11.9129 16.8364C11.9772 16.9754 12.1164 17.0642 12.2694 17.0642H16.5725C16.7255 17.0642 16.8647 16.9754 16.9288 16.8364L17.2389 16.1671H28.0558L28.0558 16.6913ZM18.4867 1.55318C18.4867 1.33616 18.6626 1.16026 18.8796 1.16026H18.8927C18.9989 1.15735 19.1017 1.19743 19.1777 1.27136C19.2537 1.34529 19.2967 1.44685 19.2967 1.55297C19.2967 1.65909 19.2537 1.76085 19.1777 1.83478C19.1017 1.90871 18.9989 1.9488 18.8927 1.94589H18.8796C18.7754 1.94589 18.6755 1.90456 18.6018 1.83083C18.5281 1.75732 18.4867 1.65743 18.4867 1.55318ZM19.9029 1.55318C19.9029 1.33616 20.0788 1.16026 20.2958 1.16026H20.3089H20.3087C20.4148 1.15735 20.5176 1.19743 20.5938 1.27136C20.6698 1.34529 20.7128 1.44685 20.7128 1.55297C20.7128 1.65909 20.6698 1.76085 20.5938 1.83478C20.5176 1.90871 20.4148 1.9488 20.3087 1.94589H20.2956H20.2958C20.1915 1.94589 20.0917 1.90456 20.0179 1.83083C19.9442 1.75732 19.9029 1.65743 19.9029 1.55318Z" fill="black"/>
</svg>
