<svg width="31" height="19" viewBox="0 0 31 19" fill="none" xmlns="http://www.w3.org/2000/svg">
<path d="M27.2688 1.26045H19.875V3.3167H27.2979L27.2688 1.26045ZM25.7084 15.4063C25.1474 15.7779 24.4851 15.9665 23.8125 15.9459C23.3673 15.9923 22.9174 15.9463 22.4908 15.8108C22.0642 15.6753 21.6702 15.4532 21.3334 15.1584C20.7107 14.4524 20.3865 13.5321 20.4292 12.5917H30.0834C30.1529 11.6125 30.0693 10.6284 29.8354 9.67503C29.6092 8.76798 29.2134 7.91195 28.6688 7.15212C28.1206 6.41508 27.4126 5.81179 26.5979 5.38753C25.6915 4.94061 24.6918 4.71567 23.6813 4.73128C22.7309 4.72432 21.7888 4.90779 20.9104 5.27087C20.1062 5.60992 19.3774 6.10566 18.7667 6.7292C18.1577 7.3652 17.6861 8.11974 17.3813 8.94587C17.0542 9.83771 16.8911 10.7814 16.9 11.7313C16.885 12.6947 17.0431 13.6529 17.3667 14.5605C17.6416 15.3823 18.0779 16.1409 18.65 16.7917C19.242 17.4307 19.9695 17.929 20.7792 18.25C21.682 18.594 22.6423 18.7623 23.6084 18.7459C24.9638 18.7881 26.302 18.4333 27.4584 17.725C28.6263 16.8951 29.4673 15.6827 29.8354 14.2979H26.6125C26.44 14.7561 26.1225 15.1453 25.7084 15.4063ZM20.7063 9.39795C20.8198 9.03436 21.0082 8.69858 21.2594 8.41224C21.5105 8.1259 21.8189 7.89535 22.1646 7.73545C22.6225 7.52937 23.121 7.42965 23.6229 7.44378C23.9855 7.41282 24.3505 7.46065 24.6928 7.58399C25.0352 7.70733 25.3468 7.90327 25.6063 8.15837C26.1018 8.76494 26.4198 9.49681 26.525 10.2729H20.4729C20.4965 9.97659 20.5503 9.68341 20.6334 9.39795H20.7063ZM12.9917 8.69795C13.7339 8.38888 14.3789 7.88501 14.8584 7.23962C15.2991 6.55421 15.518 5.74968 15.4854 4.93545C15.514 4.19292 15.3692 3.45395 15.0625 2.77712C14.8049 2.19075 14.3912 1.68632 13.8667 1.31878C13.3106 0.936661 12.679 0.678084 12.0146 0.56045C11.2283 0.395532 10.4263 0.317287 9.62294 0.327117H0.916687V18.673H9.81252C10.6244 18.6735 11.433 18.5706 12.2188 18.3667C12.9636 18.174 13.6693 17.8533 14.3042 17.4188C14.9192 16.9925 15.42 16.4216 15.7625 15.7563C16.1416 15.0122 16.3271 14.1847 16.3021 13.35C16.3297 12.3157 16.0396 11.2977 15.4709 10.4334C14.8592 9.56409 13.952 8.9472 12.9188 8.69795H12.9917ZM4.95627 3.46253H8.73335C9.08036 3.46211 9.42676 3.49138 9.76877 3.55003C10.0837 3.5967 10.3861 3.70578 10.6584 3.87087C10.9214 4.01964 11.1345 4.2429 11.2709 4.51253C11.4398 4.83587 11.5203 5.19809 11.5042 5.56253C11.5314 5.87642 11.4834 6.19227 11.3642 6.48391C11.245 6.77556 11.058 7.03461 10.8188 7.23962C10.2969 7.59841 9.67235 7.77758 9.0396 7.75003H4.95627V3.46253ZM12.0146 14.3125C11.8648 14.6097 11.6382 14.8615 11.3584 15.0417C11.0671 15.2228 10.7462 15.3512 10.4104 15.4209C10.0372 15.5044 9.65538 15.5436 9.27294 15.5375H4.89794V10.5063H9.27294C10.0237 10.4734 10.7651 10.6831 11.3875 11.1042C11.6687 11.3565 11.8865 11.6715 12.0233 12.0237C12.1601 12.3759 12.2121 12.7553 12.175 13.1313C12.2144 13.5322 12.1595 13.9367 12.0146 14.3125Z" fill="#FFFFE3"/>
</svg>
