<svg width="31" height="31" viewBox="0 0 31 31" fill="none" xmlns="http://www.w3.org/2000/svg">
<g clip-path="url(#clip0_1616_3675)">
<path d="M9.49572 27.3549C20.8833 27.3549 27.1135 17.9181 27.1135 9.73706C27.1135 9.47176 27.1076 9.20057 27.0958 8.93528C28.3078 8.0588 29.3537 6.97316 30.1845 5.72936C29.0557 6.23156 27.8573 6.55954 26.6301 6.7021C27.9222 5.92759 28.8897 4.71086 29.3532 3.27747C28.1376 3.99786 26.8083 4.50603 25.4221 4.7802C24.4882 3.78783 23.2533 3.13076 21.9085 2.91058C20.5636 2.6904 19.1837 2.91938 17.9821 3.56212C16.7804 4.20485 15.8239 5.22554 15.2606 6.46638C14.6972 7.70722 14.5582 9.0991 14.8653 10.4268C12.4039 10.3033 9.996 9.66391 7.79763 8.5501C5.59925 7.43629 3.65948 5.87291 2.10407 3.96133C1.31353 5.32432 1.07162 6.93718 1.42751 8.47211C1.7834 10.0071 2.71039 11.3489 4.02007 12.2249C3.03684 12.1937 2.07515 11.929 1.21445 11.4526V11.5293C1.21357 12.9596 1.70806 14.3461 2.61386 15.4531C3.51966 16.5601 4.78087 17.3193 6.1831 17.6015C5.27229 17.8507 4.31635 17.887 3.38927 17.7076C3.78495 18.9378 4.5548 20.0136 5.59138 20.7852C6.62796 21.5567 7.87955 21.9853 9.17147 22.0113C6.97817 23.7342 4.2688 24.6686 1.47975 24.6642C0.985129 24.6635 0.490999 24.6331 0 24.5734C2.83338 26.3912 6.12937 27.3566 9.49572 27.3549Z" fill="white"/>
</g>
<defs>
<clipPath id="clip0_1616_3675">
<rect width="30.1845" height="30.1845" fill="white"/>
</clipPath>
</defs>
</svg>
