<svg width="31" height="31" viewBox="0 0 31 31" fill="none" xmlns="http://www.w3.org/2000/svg">
<g clip-path="url(#clip0_1616_3678)">
<path d="M29.8839 9.05534C29.8839 9.05534 29.5891 6.97426 28.6812 6.06047C27.5316 4.85781 26.2464 4.85191 25.6569 4.78117C21.4358 4.47461 15.0982 4.47461 15.0982 4.47461H15.0865C15.0865 4.47461 8.7489 4.47461 4.52779 4.78117C3.93825 4.85191 2.65305 4.85781 1.50345 6.06047C0.595558 6.97426 0.306683 9.05534 0.306683 9.05534C0.306683 9.05534 0.00012207 11.5019 0.00012207 13.9426V16.23C0.00012207 18.6707 0.300787 21.1173 0.300787 21.1173C0.300787 21.1173 0.595557 23.1984 1.49755 24.1122C2.64716 25.3149 4.15638 25.2736 4.82846 25.4033C7.24557 25.6332 15.0923 25.7039 15.0923 25.7039C15.0923 25.7039 21.4358 25.6922 25.6569 25.3915C26.2464 25.3207 27.5316 25.3149 28.6812 24.1122C29.5891 23.1984 29.8839 21.1173 29.8839 21.1173C29.8839 21.1173 30.1846 18.6766 30.1846 16.23V13.9426C30.1846 11.5019 29.8839 9.05534 29.8839 9.05534ZM11.9737 19.0068V10.5233L20.127 14.7798L11.9737 19.0068Z" fill="white"/>
</g>
<defs>
<clipPath id="clip0_1616_3678">
<rect width="30.1845" height="30.1845" fill="white"/>
</clipPath>
</defs>
</svg>
